<svg version="1.1" viewBox="0.0 0.0 450.1706036745407 406.7795275590551" fill="none" stroke="none" stroke-linecap="square" stroke-miterlimit="10" xmlns:xlink="http://www.w3.org/1999/xlink" xmlns="http://www.w3.org/2000/svg"><clipPath id="p.0"><path d="m0 0l450.1706 0l0 406.77954l-450.1706 0l0 -406.77954z" clip-rule="nonzero"/></clipPath><g clip-path="url(#p.0)"><path fill="#000000" fill-opacity="0.0" d="m0 0l450.1706 0l0 406.77954l-450.1706 0z" fill-rule="evenodd"/><path fill="#000000" fill-opacity="0.0" d="m89.46457 17.424881l0 0c0 -4.4239016 3.5862808 -8.010182 8.010178 -8.010182l307.88513 0c2.1244202 0 4.161865 0.8439274 5.6640625 2.3461275c1.5021973 1.5022011 2.3461304 3.5396223 2.3461304 5.664055l0 347.34973c0 4.423889 -3.5863037 8.010193 -8.010193 8.010193l-307.88513 0c-4.423897 0 -8.010178 -3.5863037 -8.010178 -8.010193z" fill-rule="evenodd"/><path stroke="#b7b7b7" stroke-width="1.0" stroke-linejoin="round" stroke-linecap="butt" stroke-dasharray="4.0,3.0" d="m89.46457 17.424881l0 0c0 -4.4239016 3.5862808 -8.010182 8.010178 -8.010182l307.88513 0c2.1244202 0 4.161865 0.8439274 5.6640625 2.3461275c1.5021973 1.5022011 2.3461304 3.5396223 2.3461304 5.664055l0 347.34973c0 4.423889 -3.5863037 8.010193 -8.010193 8.010193l-307.88513 0c-4.423897 0 -8.010178 -3.5863037 -8.010178 -8.010193z" fill-rule="evenodd"/><path fill="#cccccc" d="m244.65106 143.71194l0 0c0 -3.114029 2.524414 -5.6384583 5.638443 -5.6384583l153.542 0c1.4953918 0 2.9295654 0.5940552 3.986969 1.651474c1.0574341 1.0574036 1.6514587 2.4915771 1.6514587 3.9869843l0 158.77032c0 3.1140442 -2.524414 5.6384583 -5.6384277 5.6384583l-153.542 0c-3.114029 0 -5.638443 -2.524414 -5.638443 -5.6384583z" fill-rule="evenodd"/><path stroke="#000000" stroke-width="1.0" stroke-linejoin="round" stroke-linecap="butt" d="m244.65106 143.71194l0 0c0 -3.114029 2.524414 -5.6384583 5.638443 -5.6384583l153.542 0c1.4953918 0 2.9295654 0.5940552 3.986969 1.651474c1.0574341 1.0574036 1.6514587 2.4915771 1.6514587 3.9869843l0 158.77032c0 3.1140442 -2.524414 5.6384583 -5.6384277 5.6384583l-153.542 0c-3.114029 0 -5.638443 -2.524414 -5.638443 -5.6384583z" fill-rule="evenodd"/><path fill="#000000" d="m291.0614 230.01712l0 -1.421875q-1.125 1.640625 -3.0625 1.640625q-0.859375 0 -1.609375 -0.328125q-0.734375 -0.328125 -1.09375 -0.828125q-0.359375 -0.5 -0.5 -1.21875q-0.109375 -0.46875 -0.109375 -1.53125l0 -5.984375l1.640625 0l0 5.359375q0 1.28125 0.109375 1.734375q0.15625 0.640625 0.65625 1.015625q0.5 0.375 1.234375 0.375q0.734375 0 1.375 -0.375q0.65625 -0.390625 0.921875 -1.03125q0.265625 -0.65625 0.265625 -1.890625l0 -5.1875l1.640625 0l0 9.671875l-1.46875 0zm2.531952 3.703125l0 -1.1875l10.859375 0l0 1.1875l-10.859375 0zm11.875732 -3.703125l0 -9.671875l1.46875 0l0 1.46875q0.5625 -1.03125 1.03125 -1.359375q0.484375 -0.328125 1.0625 -0.328125q0.828125 0 1.6875 0.53125l-0.5625 1.515625q-0.609375 -0.359375 -1.203125 -0.359375q-0.546875 0 -0.96875 0.328125q-0.421875 0.328125 -0.609375 0.890625q-0.28125 0.875 -0.28125 1.921875l0 5.0625l-1.625 0zm12.540802 -1.1875q-0.921875 0.765625 -1.765625 1.09375q-0.828125 0.3125 -1.796875 0.3125q-1.59375 0 -2.453125 -0.78125q-0.859375 -0.78125 -0.859375 -1.984375q0 -0.71875 0.328125 -1.296875q0.328125 -0.59375 0.84375 -0.9375q0.53125 -0.359375 1.1875 -0.546875q0.46875 -0.125 1.453125 -0.25q1.984375 -0.234375 2.921875 -0.5625q0.015625 -0.34375 0.015625 -0.421875q0 -1.0 -0.46875 -1.421875q-0.625 -0.546875 -1.875 -0.546875q-1.15625 0 -1.703125 0.40625q-0.546875 0.40625 -0.8125 1.421875l-1.609375 -0.21875q0.21875 -1.015625 0.71875 -1.640625q0.5 -0.640625 1.453125 -0.984375q0.953125 -0.34375 2.1875 -0.34375q1.25 0 2.015625 0.296875q0.78125 0.28125 1.140625 0.734375q0.375 0.4375 0.515625 1.109375q0.078125 0.421875 0.078125 1.515625l0 2.1875q0 2.28125 0.109375 2.890625q0.109375 0.59375 0.40625 1.15625l-1.703125 0q-0.265625 -0.515625 -0.328125 -1.1875zm-0.140625 -3.671875q-0.890625 0.375 -2.671875 0.625q-1.015625 0.140625 -1.4375 0.328125q-0.421875 0.1875 -0.65625 0.53125q-0.21875 0.34375 -0.21875 0.78125q0 0.65625 0.5 1.09375q0.5 0.4375 1.453125 0.4375q0.9375 0 1.671875 -0.40625q0.75 -0.421875 1.09375 -1.140625q0.265625 -0.5625 0.265625 -1.640625l0 -0.609375zm6.891327 4.859375l-3.6875 -9.671875l1.734375 0l2.078125 5.796875q0.328125 0.9375 0.625 1.9375q0.203125 -0.765625 0.609375 -1.828125l2.140625 -5.90625l1.6875 0l-3.65625 9.671875l-1.53125 0zm13.265625 -3.109375l1.6875 0.203125q-0.40625 1.484375 -1.484375 2.3125q-1.078125 0.8125 -2.765625 0.8125q-2.125 0 -3.375 -1.296875q-1.234375 -1.3125 -1.234375 -3.671875q0 -2.453125 1.25 -3.796875q1.265625 -1.34375 3.265625 -1.34375q1.9375 0 3.15625 1.328125q1.234375 1.3125 1.234375 3.703125q0 0.15625 0 0.4375l-7.21875 0q0.09375 1.59375 0.90625 2.453125q0.8125 0.84375 2.015625 0.84375q0.90625 0 1.546875 -0.46875q0.640625 -0.484375 1.015625 -1.515625zm-5.390625 -2.65625l5.40625 0q-0.109375 -1.21875 -0.625 -1.828125q-0.78125 -0.953125 -2.03125 -0.953125q-1.125 0 -1.90625 0.765625q-0.765625 0.75 -0.84375 2.015625zm9.141357 5.765625l0 -9.671875l1.46875 0l0 1.375q1.0625 -1.59375 3.078125 -1.59375q0.875 0 1.609375 0.3125q0.734375 0.3125 1.09375 0.828125q0.375 0.5 0.515625 1.203125q0.09375 0.453125 0.09375 1.59375l0 5.953125l-1.640625 0l0 -5.890625q0 -1.0 -0.203125 -1.484375q-0.1875 -0.5 -0.671875 -0.796875q-0.484375 -0.296875 -1.140625 -0.296875q-1.046875 0 -1.8125 0.671875q-0.75 0.65625 -0.75 2.515625l0 5.28125l-1.640625 0zm9.766327 -4.84375q0 -2.6875 1.484375 -3.96875q1.25 -1.078125 3.046875 -1.078125q2.0 0 3.265625 1.3125q1.265625 1.296875 1.265625 3.609375q0 1.859375 -0.5625 2.9375q-0.5625 1.0625 -1.640625 1.65625q-1.0625 0.59375 -2.328125 0.59375q-2.03125 0 -3.28125 -1.296875q-1.25 -1.3125 -1.25 -3.765625zm1.6875 0q0 1.859375 0.796875 2.796875q0.8125 0.921875 2.046875 0.921875q1.21875 0 2.03125 -0.921875q0.8125 -0.9375 0.8125 -2.84375q0 -1.796875 -0.8125 -2.71875q-0.8125 -0.921875 -2.03125 -0.921875q-1.234375 0 -2.046875 0.921875q-0.796875 0.90625 -0.796875 2.765625zm15.610107 1.296875l1.609375 0.21875q-0.265625 1.65625 -1.359375 2.609375q-1.078125 0.9375 -2.671875 0.9375q-1.984375 0 -3.1875 -1.296875q-1.203125 -1.296875 -1.203125 -3.71875q0 -1.578125 0.515625 -2.75q0.515625 -1.171875 1.578125 -1.75q1.0625 -0.59375 2.3125 -0.59375q1.578125 0 2.578125 0.796875q1.0 0.796875 1.28125 2.265625l-1.59375 0.234375q-0.234375 -0.96875 -0.8125 -1.453125q-0.578125 -0.5 -1.390625 -0.5q-1.234375 0 -2.015625 0.890625q-0.78125 0.890625 -0.78125 2.8125q0 1.953125 0.75 2.84375q0.75 0.875 1.953125 0.875q0.96875 0 1.609375 -0.59375q0.65625 -0.59375 0.828125 -1.828125z" fill-rule="nonzero"/><path fill="#a4c2f4" d="m149.3412 160.96588l19.496063 -19.496063l0 9.748032l53.10237 0l0 -9.748032l19.496063 19.496063l-19.496063 19.496063l0 -9.748032l-53.10237 0l0 9.748032z" fill-rule="evenodd"/><path stroke="#000000" stroke-width="1.0" stroke-linejoin="round" stroke-linecap="butt" d="m149.3412 160.96588l19.496063 -19.496063l0 9.748032l53.10237 0l0 -9.748032l19.496063 19.496063l-19.496063 19.496063l0 -9.748032l-53.10237 0l0 9.748032z" fill-rule="evenodd"/><path fill="#000000" d="m186.16537 164.70587l-1.671875 0l-0.671875 -1.734375l-3.046875 0l-0.625 1.734375l-1.640625 0l2.96875 -7.625l1.625 0l3.0625 7.625zm-2.84375 -3.015625l-1.046875 -2.828125l-1.03125 2.828125l2.078125 0zm2.8831024 3.015625l2.609375 -3.984375l-2.359375 -3.640625l1.796875 0l1.53125 2.453125l1.5 -2.453125l1.78125 0l-2.375 3.703125l2.609375 3.921875l-1.859375 0l-1.6875 -2.640625l-1.703125 2.640625l-1.84375 0zm7.8420105 0l0 -7.625l1.53125 0l0 7.625l-1.53125 0zm2.6168976 -2.484375l1.5 -0.140625q0.125 0.75 0.53125 1.109375q0.421875 0.34375 1.125 0.34375q0.75 0 1.125 -0.3125q0.375 -0.3125 0.375 -0.734375q0 -0.265625 -0.15625 -0.453125q-0.15625 -0.1875 -0.5625 -0.328125q-0.265625 -0.09375 -1.234375 -0.34375q-1.234375 -0.296875 -1.734375 -0.75q-0.703125 -0.625 -0.703125 -1.53125q0 -0.59375 0.328125 -1.09375q0.34375 -0.515625 0.953125 -0.78125q0.625 -0.265625 1.5 -0.265625q1.4375 0 2.15625 0.640625q0.734375 0.625 0.78125 1.671875l-1.546875 0.078125q-0.09375 -0.59375 -0.421875 -0.84375q-0.328125 -0.265625 -0.984375 -0.265625q-0.671875 0 -1.046875 0.28125q-0.234375 0.171875 -0.234375 0.46875q0 0.265625 0.21875 0.46875q0.296875 0.234375 1.421875 0.5q1.125 0.265625 1.65625 0.5625q0.546875 0.28125 0.84375 0.78125q0.3125 0.484375 0.3125 1.203125q0 0.65625 -0.375 1.234375q-0.359375 0.5625 -1.03125 0.84375q-0.65625 0.28125 -1.65625 0.28125q-1.4375 0 -2.21875 -0.671875q-0.78125 -0.671875 -0.921875 -1.953125zm12.599533 -5.171875q1.109375 0 1.734375 0.78125q0.75 0.9375 0.75 3.109375q0 2.171875 -0.75 3.109375q-0.625 0.78125 -1.734375 0.78125q-1.109375 0 -1.796875 -0.84375q-0.671875 -0.859375 -0.671875 -3.0625q0 -2.15625 0.75 -3.09375q0.609375 -0.78125 1.71875 -0.78125zm0 1.203125q-0.265625 0 -0.46875 0.171875q-0.203125 0.171875 -0.328125 0.609375q-0.140625 0.5625 -0.140625 1.90625q0 1.34375 0.125 1.84375q0.140625 0.5 0.34375 0.671875q0.203125 0.171875 0.46875 0.171875q0.265625 0 0.46875 -0.171875q0.21875 -0.171875 0.328125 -0.609375q0.15625 -0.5625 0.15625 -1.90625q0 -1.34375 -0.140625 -1.84375q-0.140625 -0.5 -0.34375 -0.671875q-0.203125 -0.171875 -0.46875 -0.171875z" fill-rule="nonzero"/><path fill="#a4c2f4" d="m149.3412 204.78477l19.496063 -19.496063l0 9.748032l53.10237 0l0 -9.748032l19.496063 19.496063l-19.496063 19.496063l0 -9.748032l-53.10237 0l0 9.748032z" fill-rule="evenodd"/><path stroke="#000000" stroke-width="1.0" stroke-linejoin="round" stroke-linecap="butt" d="m149.3412 204.78477l19.496063 -19.496063l0 9.748032l53.10237 0l0 -9.748032l19.496063 19.496063l-19.496063 19.496063l0 -9.748032l-53.10237 0l0 9.748032z" fill-rule="evenodd"/><path fill="#000000" d="m186.16537 208.52478l-1.671875 0l-0.671875 -1.734375l-3.046875 0l-0.625 1.734375l-1.640625 0l2.96875 -7.625l1.625 0l3.0625 7.625zm-2.84375 -3.015625l-1.046875 -2.828125l-1.03125 2.828125l2.078125 0zm2.8831024 3.015625l2.609375 -3.984375l-2.359375 -3.640625l1.796875 0l1.53125 2.453125l1.5 -2.453125l1.78125 0l-2.375 3.703125l2.609375 3.921875l-1.859375 0l-1.6875 -2.640625l-1.703125 2.640625l-1.84375 0zm7.8420105 0l0 -7.625l1.53125 0l0 7.625l-1.53125 0zm2.6168976 -2.484375l1.5 -0.140625q0.125 0.75 0.53125 1.109375q0.421875 0.34375 1.125 0.34375q0.75 0 1.125 -0.3125q0.375 -0.3125 0.375 -0.734375q0 -0.265625 -0.15625 -0.453125q-0.15625 -0.1875 -0.5625 -0.328125q-0.265625 -0.09375 -1.234375 -0.34375q-1.234375 -0.296875 -1.734375 -0.75q-0.703125 -0.625 -0.703125 -1.53125q0 -0.59375 0.328125 -1.09375q0.34375 -0.515625 0.953125 -0.78125q0.625 -0.265625 1.5 -0.265625q1.4375 0 2.15625 0.640625q0.734375 0.625 0.78125 1.671875l-1.546875 0.078125q-0.09375 -0.59375 -0.421875 -0.84375q-0.328125 -0.265625 -0.984375 -0.265625q-0.671875 0 -1.046875 0.28125q-0.234375 0.171875 -0.234375 0.46875q0 0.265625 0.21875 0.46875q0.296875 0.234375 1.421875 0.5q1.125 0.265625 1.65625 0.5625q0.546875 0.28125 0.84375 0.78125q0.3125 0.484375 0.3125 1.203125q0 0.65625 -0.375 1.234375q-0.359375 0.5625 -1.03125 0.84375q-0.65625 0.28125 -1.65625 0.28125q-1.4375 0 -2.21875 -0.671875q-0.78125 -0.671875 -0.921875 -1.953125zm13.865158 2.484375l-1.453125 0l0 -5.515625q-0.796875 0.75 -1.890625 1.109375l0 -1.328125q0.578125 -0.1875 1.234375 -0.703125q0.671875 -0.53125 0.921875 -1.21875l1.1875 0l0 7.65625z" fill-rule="nonzero"/><path fill="#a4c2f4" d="m149.3412 288.62466l19.496063 -19.496063l0 9.748047l53.10237 0l0 -9.748047l19.496063 19.496063l-19.496063 19.496063l0 -9.748016l-53.10237 0l0 9.748016z" fill-rule="evenodd"/><path stroke="#000000" stroke-width="1.0" stroke-linejoin="round" stroke-linecap="butt" d="m149.3412 288.62466l19.496063 -19.496063l0 9.748047l53.10237 0l0 -9.748047l19.496063 19.496063l-19.496063 19.496063l0 -9.748016l-53.10237 0l0 9.748016z" fill-rule="evenodd"/><path fill="#000000" d="m183.20732 292.3647l-1.671875 0l-0.671875 -1.734375l-3.046875 0l-0.625 1.734375l-1.640625 0l2.96875 -7.625l1.625 0l3.0625 7.625zm-2.84375 -3.015625l-1.046875 -2.828125l-1.03125 2.828125l2.078125 0zm2.8831024 3.015625l2.609375 -3.984375l-2.359375 -3.640625l1.796875 0l1.53125 2.453125l1.5 -2.453125l1.78125 0l-2.375 3.703125l2.609375 3.921875l-1.859375 0l-1.6875 -2.640625l-1.703125 2.640625l-1.84375 0zm7.8420105 0l0 -7.625l1.53125 0l0 7.625l-1.53125 0zm2.6168976 -2.484375l1.5 -0.140625q0.125 0.75 0.53125 1.109375q0.421875 0.34375 1.125 0.34375q0.75 0 1.125 -0.3125q0.375 -0.3125 0.375 -0.734375q0 -0.265625 -0.15625 -0.453125q-0.15625 -0.1875 -0.5625 -0.328125q-0.265625 -0.09375 -1.234375 -0.34375q-1.234375 -0.296875 -1.734375 -0.75q-0.703125 -0.625 -0.703125 -1.53125q0 -0.59375 0.328125 -1.09375q0.34375 -0.515625 0.953125 -0.78125q0.625 -0.265625 1.5 -0.265625q1.4375 0 2.15625 0.640625q0.734375 0.625 0.78125 1.671875l-1.546875 0.078125q-0.09375 -0.59375 -0.421875 -0.84375q-0.328125 -0.265625 -0.984375 -0.265625q-0.671875 0 -1.046875 0.28125q-0.234375 0.171875 -0.234375 0.46875q0 0.265625 0.21875 0.46875q0.296875 0.234375 1.421875 0.5q1.125 0.265625 1.65625 0.5625q0.546875 0.28125 0.84375 0.78125q0.3125 0.484375 0.3125 1.203125q0 0.65625 -0.375 1.234375q-0.359375 0.5625 -1.03125 0.84375q-0.65625 0.28125 -1.65625 0.28125q-1.4375 0 -2.21875 -0.671875q-0.78125 -0.671875 -0.921875 -1.953125zm10.958908 -1.640625l-0.796875 -0.609375q0.375 -0.421875 0.78125 -0.796875q0.171875 -0.15625 0.203125 -0.203125q-0.125 -0.015625 -0.734375 -0.171875q-0.453125 -0.109375 -0.59375 -0.15625l0.3125 -0.921875q0.6875 0.28125 1.21875 0.609375q-0.125 -0.84375 -0.125 -1.390625l0.921875 0q0 0.390625 -0.140625 1.40625q0.109375 -0.046875 0.453125 -0.203125q0.46875 -0.21875 0.859375 -0.375l0.28125 0.953125q-0.578125 0.125 -1.34375 0.25l0.625 0.703125q0.1875 0.21875 0.296875 0.34375l-0.796875 0.53125l-0.703125 -1.15625q-0.3125 0.5625 -0.71875 1.1875zm3.662613 4.125l0 -7.625l1.5 0l3.109375 5.09375l0 -5.09375l1.4375 0l0 7.625l-1.546875 0l-3.078125 -4.96875l0 4.96875l-1.421875 0z" fill-rule="nonzero"/><path fill="#000000" fill-opacity="0.0" d="m157.31496 229.78215l76.25197 0l0 26.83464l-76.25197 0z" fill-rule="evenodd"/><path fill="#000000" d="m189.35349 249.91948l0 -1.875l1.875 0l0 1.875l-1.875 0zm5.183304 0l0 -1.875l1.875 0l0 1.875l-1.875 0zm5.183304 0l0 -1.875l1.875 0l0 1.875l-1.875 0z" fill-rule="nonzero"/><path fill="#000000" fill-opacity="0.0" d="m247.65092 285.42258l71.37007 0l0 27.46457l-71.37007 0z" fill-rule="evenodd"/><path fill="#000000" d="m256.85403 296.93195l0.15625 -0.46875q0.515625 0.1875 0.75 0.328125q-0.0625 -0.59375 -0.0625 -0.8125l0.46875 0q-0.015625 0.3125 -0.078125 0.796875q0.34375 -0.15625 0.765625 -0.3125l0.15625 0.46875q-0.421875 0.140625 -0.8125 0.1875q0.203125 0.171875 0.5625 0.609375l-0.390625 0.28125q-0.1875 -0.265625 -0.453125 -0.703125q-0.234375 0.453125 -0.421875 0.703125l-0.375 -0.28125q0.375 -0.46875 0.53125 -0.609375q-0.421875 -0.09375 -0.796875 -0.1875zm2.8872375 3.890625l0 -4.765625l0.65625 0l2.5 3.734375l0 -3.734375l0.609375 0l0 4.765625l-0.65625 0l-2.5 -3.75l0 3.75l-0.609375 0zm6.375 -1.4375l0 -0.578125l1.796875 0l0 0.578125l-1.796875 0zm4.3471375 1.4375l0 -4.765625l0.65625 0l2.5 3.734375l0 -3.734375l0.609375 0l0 4.765625l-0.65625 0l-2.5 -3.75l0 3.75l-0.609375 0zm4.525696 -1.71875q0 -0.96875 0.53125 -1.421875q0.453125 -0.390625 1.09375 -0.390625q0.703125 0 1.15625 0.46875q0.453125 0.46875 0.453125 1.28125q0 0.671875 -0.203125 1.0625q-0.1875 0.375 -0.578125 0.59375q-0.375 0.203125 -0.828125 0.203125q-0.734375 0 -1.1875 -0.453125q-0.4375 -0.46875 -0.4375 -1.34375zm0.609375 0q0 0.65625 0.28125 0.984375q0.296875 0.328125 0.734375 0.328125q0.4375 0 0.71875 -0.328125q0.296875 -0.328125 0.296875 -1.015625q0 -0.640625 -0.296875 -0.96875q-0.296875 -0.328125 -0.71875 -0.328125q-0.4375 0 -0.734375 0.328125q-0.28125 0.328125 -0.28125 1.0zm6.779999 0.046875l0.640625 0.15625q-0.203125 0.78125 -0.71875 1.1875q-0.515625 0.40625 -1.25 0.40625q-0.78125 0 -1.265625 -0.3125q-0.484375 -0.3125 -0.734375 -0.90625q-0.25 -0.59375 -0.25 -1.28125q0 -0.734375 0.28125 -1.28125q0.296875 -0.5625 0.8125 -0.84375q0.53125 -0.296875 1.15625 -0.296875q0.71875 0 1.203125 0.359375q0.484375 0.359375 0.6875 1.03125l-0.625 0.140625q-0.171875 -0.515625 -0.484375 -0.75q-0.3125 -0.25 -0.796875 -0.25q-0.546875 0 -0.921875 0.265625q-0.359375 0.265625 -0.515625 0.71875q-0.140625 0.4375 -0.140625 0.90625q0 0.609375 0.171875 1.0625q0.171875 0.453125 0.546875 0.6875q0.375 0.21875 0.8125 0.21875q0.53125 0 0.890625 -0.296875q0.375 -0.3125 0.5 -0.921875zm2.953125 0.640625l0.578125 -0.09375q0.046875 0.34375 0.265625 0.53125q0.234375 0.1875 0.625 0.1875q0.40625 0 0.59375 -0.15625q0.203125 -0.171875 0.203125 -0.390625q0 -0.203125 -0.171875 -0.3125q-0.125 -0.078125 -0.59375 -0.203125q-0.640625 -0.15625 -0.890625 -0.265625q-0.25 -0.125 -0.390625 -0.328125q-0.125 -0.21875 -0.125 -0.46875q0 -0.234375 0.109375 -0.421875q0.109375 -0.203125 0.296875 -0.34375q0.125 -0.09375 0.359375 -0.15625q0.234375 -0.078125 0.515625 -0.078125q0.40625 0 0.703125 0.125q0.3125 0.109375 0.453125 0.3125q0.15625 0.203125 0.203125 0.53125l-0.5625 0.078125q-0.046875 -0.265625 -0.234375 -0.40625q-0.1875 -0.15625 -0.53125 -0.15625q-0.390625 0 -0.5625 0.140625q-0.171875 0.125 -0.171875 0.296875q0 0.125 0.0625 0.203125q0.078125 0.109375 0.21875 0.15625q0.09375 0.046875 0.53125 0.15625q0.609375 0.171875 0.859375 0.28125q0.25 0.09375 0.390625 0.296875q0.140625 0.203125 0.140625 0.5q0 0.296875 -0.171875 0.5625q-0.171875 0.25 -0.5 0.390625q-0.3125 0.140625 -0.71875 0.140625q-0.6875 0 -1.046875 -0.28125q-0.34375 -0.28125 -0.4375 -0.828125zm3.5625 -3.0625l0 -0.671875l0.59375 0l0 0.671875l-0.59375 0zm0 4.09375l0 -3.453125l0.59375 0l0 3.453125l-0.59375 0zm1.1663208 0l0 -0.46875l2.203125 -2.53125q-0.375 0.015625 -0.65625 0.015625l-1.40625 0l0 -0.46875l2.8125 0l0 0.390625l-1.859375 2.1875l-0.375 0.40625q0.40625 -0.03125 0.75 -0.03125l1.59375 0l0 0.5l-3.0625 0zm6.0 -1.109375l0.609375 0.078125q-0.140625 0.53125 -0.53125 0.828125q-0.390625 0.28125 -0.984375 0.28125q-0.765625 0 -1.203125 -0.46875q-0.4375 -0.46875 -0.4375 -1.3125q0 -0.859375 0.4375 -1.34375q0.453125 -0.484375 1.171875 -0.484375q0.6875 0 1.125 0.46875q0.4375 0.46875 0.4375 1.328125q0 0.046875 0 0.15625l-2.578125 0q0.03125 0.578125 0.3125 0.875q0.296875 0.296875 0.734375 0.296875q0.328125 0 0.546875 -0.15625q0.234375 -0.171875 0.359375 -0.546875zm-1.921875 -0.953125l1.9375 0q-0.046875 -0.4375 -0.21875 -0.640625q-0.28125 -0.34375 -0.734375 -0.34375q-0.40625 0 -0.6875 0.265625q-0.265625 0.265625 -0.296875 0.71875zm3.0456238 0.625l0 -0.578125l1.796875 0l0 0.578125l-1.796875 0zm4.4822083 1.4375l-0.59375 0l0 -3.734375q-0.203125 0.203125 -0.546875 0.40625q-0.34375 0.203125 -0.625 0.3125l0 -0.578125q0.5 -0.21875 0.859375 -0.546875q0.375 -0.328125 0.53125 -0.640625l0.375 0l0 4.78125z" fill-rule="nonzero"/><path fill="#999999" d="m143.64174 216.15092l-21.70079 -5.4252014l0 -78.09448l21.70079 -5.4252014z" fill-rule="evenodd"/><path stroke="#000000" stroke-width="1.0" stroke-linejoin="round" stroke-linecap="butt" d="m143.64174 216.15092l-21.70079 -5.4252014l0 -78.09448l21.70079 -5.4252014z" fill-rule="evenodd"/><path fill="#93c47d" d="m26.914698 174.2769l19.496065 -19.496063l0 9.748032l53.10236 0l0 -9.748032l19.496063 19.496063l-19.496063 19.496063l0 -9.748032l-53.10236 0l0 9.748032z" fill-rule="evenodd"/><path stroke="#000000" stroke-width="1.0" stroke-linejoin="round" stroke-linecap="butt" d="m26.914698 174.2769l19.496065 -19.496063l0 9.748032l53.10236 0l0 -9.748032l19.496063 19.496063l-19.496063 19.496063l0 -9.748032l-53.10236 0l0 9.748032z" fill-rule="evenodd"/><path fill="#000000" d="m56.257263 177.73691l-1.265625 0l0 -2.46875q0 -0.78125 -0.09375 -1.015625q-0.078125 -0.234375 -0.265625 -0.359375q-0.1875 -0.125 -0.4375 -0.125q-0.328125 0 -0.59375 0.1875q-0.265625 0.171875 -0.375 0.484375q-0.09375 0.296875 -0.09375 1.109375l0 2.1875l-1.28125 0l0 -4.84375l1.1875 0l0 0.71875q0.640625 -0.828125 1.59375 -0.828125q0.421875 0 0.765625 0.15625q0.359375 0.15625 0.53125 0.390625q0.1875 0.234375 0.25 0.546875q0.078125 0.296875 0.078125 0.859375l0 3.0zm1.010498 -2.484375q0 -0.640625 0.3125 -1.234375q0.3125 -0.59375 0.890625 -0.90625q0.578125 -0.328125 1.28125 -0.328125q1.109375 0 1.796875 0.71875q0.703125 0.71875 0.703125 1.796875q0 1.109375 -0.703125 1.828125q-0.703125 0.71875 -1.78125 0.71875q-0.671875 0 -1.28125 -0.296875q-0.59375 -0.296875 -0.90625 -0.875q-0.3125 -0.59375 -0.3125 -1.421875zm1.3125 0.0625q0 0.71875 0.34375 1.109375q0.34375 0.375 0.84375 0.375q0.5 0 0.828125 -0.375q0.34375 -0.390625 0.34375 -1.109375q0 -0.71875 -0.34375 -1.09375q-0.328125 -0.390625 -0.828125 -0.390625q-0.5 0 -0.84375 0.390625q-0.34375 0.375 -0.34375 1.09375zm8.901123 -0.984375l-1.265625 0.234375q-0.0625 -0.390625 -0.296875 -0.578125q-0.21875 -0.1875 -0.578125 -0.1875q-0.484375 0 -0.765625 0.328125q-0.28125 0.328125 -0.28125 1.109375q0 0.859375 0.28125 1.21875q0.296875 0.34375 0.78125 0.34375q0.375 0 0.59375 -0.203125q0.234375 -0.203125 0.328125 -0.71875l1.265625 0.21875q-0.203125 0.859375 -0.765625 1.3125q-0.546875 0.4375 -1.484375 0.4375q-1.046875 0 -1.6875 -0.671875q-0.625 -0.671875 -0.625 -1.84375q0 -1.203125 0.625 -1.875q0.640625 -0.671875 1.71875 -0.671875q0.875 0 1.390625 0.390625q0.53125 0.375 0.765625 1.15625zm0.20349121 5.25l0 -0.828125l5.328125 0l0 0.828125l-5.328125 0zm5.953491 -7.34375l0 -1.171875l1.28125 0l0 1.171875l-1.28125 0zm0 5.5l0 -4.84375l1.28125 0l0 4.84375l-1.28125 0zm6.9822845 0l-1.265625 0l0 -2.46875q0 -0.78125 -0.09375 -1.015625q-0.078125 -0.234375 -0.265625 -0.359375q-0.1875 -0.125 -0.4375 -0.125q-0.328125 0 -0.59375 0.1875q-0.265625 0.171875 -0.375 0.484375q-0.09375 0.296875 -0.09375 1.109375l0 2.1875l-1.28125 0l0 -4.84375l1.1875 0l0 0.71875q0.640625 -0.828125 1.59375 -0.828125q0.421875 0 0.765625 0.15625q0.359375 0.15625 0.53125 0.390625q0.1875 0.234375 0.25 0.546875q0.078125 0.296875 0.078125 0.859375l0 3.0zm3.8677826 0l0 -6.671875l1.34375 0l0 6.671875l-1.34375 0zm1.9354095 0.109375l1.65625 -6.90625l0.953125 0l-1.671875 6.90625l-0.9375 0zm3.2947845 -0.109375l0 -6.671875l4.578125 0l0 1.125l-3.234375 0l0 1.578125l2.796875 0l0 1.125l-2.796875 0l0 2.84375l-1.34375 0z" fill-rule="nonzero"/><path fill="#999999" d="m143.01181 318.9882l-21.70079 -5.4252014l0 -78.09448l21.70079 -5.4252014z" fill-rule="evenodd"/><path stroke="#000000" stroke-width="1.0" stroke-linejoin="round" stroke-linecap="butt" d="m143.01181 318.9882l-21.70079 -5.4252014l0 -78.09448l21.70079 -5.4252014z" fill-rule="evenodd"/><path fill="#ffd966" d="m26.284777 277.11417l19.496061 -19.496063l0 9.748047l53.102364 0l0 -9.748047l19.496063 19.496063l-19.496063 19.496063l0 -9.748016l-53.102364 0l0 9.748016z" fill-rule="evenodd"/><path stroke="#000000" stroke-width="1.0" stroke-linejoin="round" stroke-linecap="butt" d="m26.284777 277.11417l19.496061 -19.496063l0 9.748047l53.102364 0l0 -9.748047l19.496063 19.496063l-19.496063 19.496063l0 -9.748016l-53.102364 0l0 9.748016z" fill-rule="evenodd"/><path fill="#000000" d="m52.521004 280.57416l-1.265625 0l0 -2.46875q0 -0.78125 -0.09375 -1.015625q-0.078125 -0.234375 -0.265625 -0.359375q-0.1875 -0.125 -0.4375 -0.125q-0.328125 0 -0.59375 0.1875q-0.265625 0.171875 -0.375 0.484375q-0.09375 0.296875 -0.09375 1.109375l0 2.1875l-1.28125 0l0 -4.84375l1.1875 0l0 0.71875q0.640625 -0.828125 1.59375 -0.828125q0.421875 0 0.765625 0.15625q0.359375 0.15625 0.53125 0.390625q0.1875 0.234375 0.25 0.546875q0.078125 0.296875 0.078125 0.859375l0 3.0zm1.010498 -2.484375q0 -0.640625 0.3125 -1.234375q0.3125 -0.59375 0.890625 -0.90625q0.578125 -0.328125 1.28125 -0.328125q1.109375 0 1.796875 0.71875q0.703125 0.71875 0.703125 1.796875q0 1.109375 -0.703125 1.828125q-0.703125 0.71875 -1.78125 0.71875q-0.671875 0 -1.28125 -0.296875q-0.59375 -0.296875 -0.90625 -0.875q-0.3125 -0.59375 -0.3125 -1.421875zm1.3125 0.0625q0 0.71875 0.34375 1.109375q0.34375 0.375 0.84375 0.375q0.5 0 0.828125 -0.375q0.34375 -0.390625 0.34375 -1.109375q0 -0.71875 -0.34375 -1.09375q-0.328125 -0.390625 -0.828125 -0.390625q-0.5 0 -0.84375 0.390625q-0.34375 0.375 -0.34375 1.09375zm8.901123 -0.984375l-1.265625 0.234375q-0.0625 -0.390625 -0.296875 -0.578125q-0.21875 -0.1875 -0.578125 -0.1875q-0.484375 0 -0.765625 0.328125q-0.28125 0.328125 -0.28125 1.109375q0 0.859375 0.28125 1.21875q0.296875 0.34375 0.78125 0.34375q0.375 0 0.59375 -0.203125q0.234375 -0.203125 0.328125 -0.71875l1.265625 0.21875q-0.203125 0.859375 -0.765625 1.3125q-0.546875 0.4375 -1.484375 0.4375q-1.046875 0 -1.6875 -0.671875q-0.625 -0.671875 -0.625 -1.84375q0 -1.203125 0.625 -1.875q0.640625 -0.671875 1.71875 -0.671875q0.875 0 1.390625 0.390625q0.53125 0.375 0.765625 1.15625zm0.20349121 5.25l0 -0.828125l5.328125 0l0 0.828125l-5.328125 0zm5.656616 -4.328125q0 -0.640625 0.3125 -1.234375q0.3125 -0.59375 0.890625 -0.90625q0.578125 -0.328125 1.28125 -0.328125q1.109375 0 1.796875 0.71875q0.703125 0.71875 0.703125 1.796875q0 1.109375 -0.703125 1.828125q-0.703125 0.71875 -1.78125 0.71875q-0.671875 0 -1.28125 -0.296875q-0.59375 -0.296875 -0.90625 -0.875q-0.3125 -0.59375 -0.3125 -1.421875zm1.3125 0.0625q0 0.71875 0.34375 1.109375q0.34375 0.375 0.84375 0.375q0.5 0 0.828125 -0.375q0.34375 -0.390625 0.34375 -1.109375q0 -0.71875 -0.34375 -1.09375q-0.328125 -0.390625 -0.828125 -0.390625q-0.5 0 -0.84375 0.390625q-0.34375 0.375 -0.34375 1.09375zm7.869873 2.421875l0 -0.71875q-0.265625 0.375 -0.703125 0.609375q-0.421875 0.21875 -0.90625 0.21875q-0.484375 0 -0.875 -0.203125q-0.390625 -0.21875 -0.5625 -0.609375q-0.171875 -0.390625 -0.171875 -1.078125l0 -3.0625l1.28125 0l0 2.234375q0 1.015625 0.0625 1.25q0.078125 0.21875 0.265625 0.359375q0.1875 0.140625 0.46875 0.140625q0.328125 0 0.59375 -0.171875q0.265625 -0.1875 0.359375 -0.453125q0.09375 -0.28125 0.09375 -1.3125l0 -2.046875l1.28125 0l0 4.84375l-1.1875 0zm4.729248 -4.84375l0 1.03125l-0.875 0l0 1.9375q0 0.59375 0.015625 0.703125q0.03125 0.09375 0.109375 0.15625q0.09375 0.0625 0.234375 0.0625q0.171875 0 0.515625 -0.125l0.109375 1.0q-0.453125 0.1875 -1.015625 0.1875q-0.34375 0 -0.625 -0.109375q-0.28125 -0.125 -0.421875 -0.296875q-0.125 -0.1875 -0.171875 -0.515625q-0.03125 -0.21875 -0.03125 -0.890625l0 -2.109375l-0.59375 0l0 -1.03125l0.59375 0l0 -0.953125l1.28125 -0.75l0 1.703125l0.875 0zm3.447998 4.84375l0 -6.671875l1.34375 0l0 6.671875l-1.34375 0zm1.9354095 0.109375l1.65625 -6.90625l0.953125 0l-1.671875 6.90625l-0.9375 0zm3.2947845 -0.109375l0 -6.671875l4.578125 0l0 1.125l-3.234375 0l0 1.578125l2.796875 0l0 1.125l-2.796875 0l0 2.84375l-1.34375 0z" fill-rule="nonzero"/><path fill="#000000" fill-opacity="0.0" d="m118.38058 104.07545l14.425194 0l0 25.858269" fill-rule="evenodd"/><path stroke="#000000" stroke-width="1.0" stroke-linejoin="round" stroke-linecap="butt" d="m118.38058 104.07545l14.425194 0l0 19.858269" fill-rule="evenodd"/><path fill="#000000" stroke="#000000" stroke-width="1.0" stroke-linecap="butt" d="m131.15404 123.933716l1.6517334 4.538101l1.6517334 -4.538101z" fill-rule="evenodd"/><path fill="#d9d9d9" d="m92.01837 92.97309l13.181107 0l0 0c7.2797165 0 13.181099 4.9706955 13.181099 11.102356c0 6.131668 -5.9013824 11.102364 -13.181099 11.102364l-13.181107 0z" fill-rule="evenodd"/><path stroke="#000000" stroke-width="1.0" stroke-linejoin="round" stroke-linecap="butt" d="m92.01837 92.97309l13.181107 0l0 0c7.2797165 0 13.181099 4.9706955 13.181099 11.102356c0 6.131668 -5.9013824 11.102364 -13.181099 11.102364l-13.181107 0z" fill-rule="evenodd"/><path fill="#000000" fill-opacity="0.0" d="m70.97638 108.66933l18.48819 0" fill-rule="evenodd"/><path stroke="#000000" stroke-width="1.0" stroke-linejoin="round" stroke-linecap="butt" d="m70.97638 108.669334l12.48819 0" fill-rule="evenodd"/><path fill="#000000" stroke="#000000" stroke-width="1.0" stroke-linecap="butt" d="m83.46457 110.32107l4.5380936 -1.6517334l-4.5380936 -1.6517334z" fill-rule="evenodd"/><path fill="#000000" fill-opacity="0.0" d="m70.97638 99.24766l18.48819 0" fill-rule="evenodd"/><path stroke="#000000" stroke-width="1.0" stroke-linejoin="round" stroke-linecap="butt" d="m70.97638 99.247665l12.48819 0" fill-rule="evenodd"/><path fill="#000000" stroke="#000000" stroke-width="1.0" stroke-linecap="butt" d="m83.46457 100.89939l4.5380936 -1.6517258l-4.5380936 -1.6517334z" fill-rule="evenodd"/><path fill="#000000" fill-opacity="0.0" d="m20.72441 84.21064l55.527557 0l0 38.771652l-55.527557 0z" fill-rule="evenodd"/><path fill="#000000" d="m34.90822 100.375015q-0.390625 0.328125 -0.75 0.46875q-0.359375 0.140625 -0.78125 0.140625q-0.671875 0 -1.046875 -0.328125q-0.3593769 -0.34375 -0.3593769 -0.859375q0 -0.3125 0.1250019 -0.5625q0.140625 -0.25 0.359375 -0.390625q0.234375 -0.15625 0.515625 -0.234375q0.203125 -0.0625 0.625 -0.109375q0.859375 -0.109375 1.25 -0.25q0.015625 -0.140625 0.015625 -0.171875q0 -0.4375 -0.203125 -0.609375q-0.265625 -0.234375 -0.796875 -0.234375q-0.5 0 -0.734375 0.171875q-0.234375 0.171875 -0.359375 0.609375l-0.6875 -0.09375q0.09375 -0.4375 0.3125 -0.703125q0.21875 -0.28125 0.625 -0.421875q0.40625 -0.15625 0.9375 -0.15625q0.53125 0 0.859375 0.125q0.34375 0.125 0.5 0.328125q0.15625 0.1875 0.21875 0.46875q0.03125 0.1875 0.03125 0.65625l0 0.9375q0 0.96875 0.046875 1.234375q0.046875 0.265625 0.171875 0.5l-0.734375 0q-0.109375 -0.21875 -0.140625 -0.515625zm-0.0625 -1.5625q-0.375 0.15625 -1.140625 0.265625q-0.4375 0.0625 -0.625 0.140625q-0.171875 0.078125 -0.265625 0.234375q-0.09375 0.140625 -0.09375 0.328125q0 0.28125 0.203125 0.46875q0.21875 0.1875 0.625 0.1875q0.40625 0 0.71875 -0.171875q0.328125 -0.1875 0.46875 -0.5q0.109375 -0.234375 0.109375 -0.703125l0 -0.25zm1.3398438 2.078125l1.515625 -2.15625l-1.40625 -2.0l0.875 0l0.640625 0.984375q0.1875 0.265625 0.296875 0.453125q0.171875 -0.25 0.3125 -0.453125l0.703125 -0.984375l0.828125 0l-1.421875 1.953125l1.53125 2.203125l-0.859375 0l-0.84375 -1.296875l-0.234375 -0.34375l-1.09375 1.640625l-0.84375 0zm4.46875 -4.921875l0 -0.8125l0.703125 0l0 0.8125l-0.703125 0zm0 4.921875l0 -4.15625l0.703125 0l0 4.15625l-0.703125 0zm1.1210938 1.59375l0 -0.515625l4.671875 0l0 0.515625l-4.671875 0zm4.8242188 -2.828125l0.6875 -0.109375q0.0625 0.40625 0.328125 0.640625q0.265625 0.21875 0.75 0.21875q0.484375 0 0.71875 -0.1875q0.234375 -0.203125 0.234375 -0.46875q0 -0.25 -0.203125 -0.375q-0.140625 -0.09375 -0.71875 -0.25q-0.78125 -0.1875 -1.078125 -0.328125q-0.296875 -0.140625 -0.453125 -0.390625q-0.15625 -0.265625 -0.15625 -0.5625q0 -0.28125 0.125 -0.515625q0.140625 -0.234375 0.359375 -0.390625q0.15625 -0.125 0.4375 -0.203125q0.28125 -0.09375 0.609375 -0.09375q0.484375 0 0.859375 0.140625q0.375 0.140625 0.546875 0.390625q0.171875 0.234375 0.234375 0.640625l-0.6875 0.09375q-0.046875 -0.328125 -0.265625 -0.5q-0.21875 -0.1875 -0.640625 -0.1875q-0.484375 0 -0.6875 0.171875q-0.203125 0.15625 -0.203125 0.375q0 0.125 0.078125 0.234375q0.09375 0.125 0.28125 0.1875q0.09375 0.046875 0.609375 0.1875q0.75 0.203125 1.046875 0.328125q0.296875 0.125 0.453125 0.375q0.171875 0.234375 0.171875 0.59375q0 0.34375 -0.203125 0.65625q-0.203125 0.3125 -0.59375 0.484375q-0.375 0.171875 -0.875 0.171875q-0.796875 0 -1.234375 -0.328125q-0.421875 -0.34375 -0.53125 -1.0zm7.125 -0.109375l0.71875 0.09375q-0.171875 0.640625 -0.640625 1.0q-0.453125 0.34375 -1.1875 0.34375q-0.90625 0 -1.4375 -0.5625q-0.53125 -0.5625 -0.53125 -1.578125q0 -1.046875 0.53125 -1.625q0.546875 -0.578125 1.40625 -0.578125q0.828125 0 1.359375 0.578125q0.53125 0.5625 0.53125 1.59375q0 0.0625 -0.015625 0.1875l-3.09375 0q0.046875 0.671875 0.390625 1.046875q0.34375 0.359375 0.875 0.359375q0.375 0 0.640625 -0.203125q0.28125 -0.203125 0.453125 -0.65625zm-2.3125 -1.125l2.3125 0q-0.046875 -0.53125 -0.265625 -0.796875q-0.328125 -0.40625 -0.875 -0.40625q-0.484375 0 -0.8125 0.328125q-0.328125 0.328125 -0.359375 0.875zm3.9023438 2.46875l0 -5.734375l0.703125 0l0 5.734375l-0.703125 0zm1.1367188 1.59375l0 -0.515625l4.671875 0l0 0.515625l-4.671875 0zm5.1054688 -6.515625l0 -0.8125l0.703125 0l0 0.8125l-0.703125 0zm0 4.921875l0 -4.15625l0.703125 0l0 4.15625l-0.703125 0zm1.7773438 0l0 -4.15625l0.625 0l0 0.59375q0.46875 -0.6875 1.328125 -0.6875q0.375 0 0.6875 0.140625q0.3125 0.140625 0.46875 0.359375q0.15625 0.21875 0.21875 0.515625q0.046875 0.1875 0.046875 0.6875l0 2.546875l-0.703125 0l0 -2.53125q0 -0.421875 -0.09375 -0.625q-0.078125 -0.21875 -0.296875 -0.34375q-0.203125 -0.140625 -0.484375 -0.140625q-0.4375 0 -0.765625 0.296875q-0.328125 0.28125 -0.328125 1.078125l0 2.265625l-0.703125 0z" fill-rule="nonzero"/><path fill="#000000" d="m49.138687 109.97501q-0.390625 0.328125 -0.75 0.46875q-0.359375 0.140625 -0.78125 0.140625q-0.671875 0 -1.046875 -0.328125q-0.359375 -0.34375 -0.359375 -0.859375q0 -0.3125 0.125 -0.5625q0.140625 -0.25 0.359375 -0.390625q0.234375 -0.15625 0.515625 -0.234375q0.203125 -0.0625 0.625 -0.109375q0.859375 -0.109375 1.25 -0.25q0.015625 -0.140625 0.015625 -0.171875q0 -0.4375 -0.203125 -0.609375q-0.265625 -0.234375 -0.796875 -0.234375q-0.5 0 -0.734375 0.171875q-0.234375 0.171875 -0.359375 0.609375l-0.6875 -0.09375q0.09375 -0.4375 0.3125 -0.703125q0.21875 -0.28125 0.625 -0.421875q0.40625 -0.15625 0.9375 -0.15625q0.53125 0 0.859375 0.125q0.34375 0.125 0.5 0.328125q0.15625 0.1875 0.21875 0.46875q0.03125 0.1875 0.03125 0.65625l0 0.9375q0 0.96875 0.046875 1.234375q0.046875 0.265625 0.171875 0.5l-0.734375 0q-0.109375 -0.21875 -0.140625 -0.515625zm-0.0625 -1.5625q-0.375 0.15625 -1.140625 0.265625q-0.4375 0.0625 -0.625 0.140625q-0.171875 0.078125 -0.265625 0.234375q-0.09375 0.140625 -0.09375 0.328125q0 0.28125 0.203125 0.46875q0.21875 0.1875 0.625 0.1875q0.40625 0 0.71875 -0.171875q0.328125 -0.1875 0.46875 -0.5q0.109375 -0.234375 0.109375 -0.703125l0 -0.25zm4.5117188 0.5625l0.6875 0.078125q-0.109375 0.71875 -0.578125 1.125q-0.46875 0.40625 -1.140625 0.40625q-0.859375 0 -1.375 -0.546875q-0.515625 -0.5625 -0.515625 -1.609375q0 -0.671875 0.21875 -1.171875q0.234375 -0.5 0.6875 -0.75q0.453125 -0.265625 0.984375 -0.265625q0.671875 0 1.09375 0.34375q0.4375 0.34375 0.5625 0.96875l-0.6875 0.109375q-0.09375 -0.421875 -0.34375 -0.625q-0.25 -0.21875 -0.59375 -0.21875q-0.53125 0 -0.875 0.390625q-0.328125 0.375 -0.328125 1.203125q0 0.828125 0.3125 1.21875q0.328125 0.375 0.84375 0.375q0.421875 0 0.6875 -0.25q0.28125 -0.265625 0.359375 -0.78125zm2.828125 0.890625l0.109375 0.609375q-0.296875 0.078125 -0.53125 0.078125q-0.390625 0 -0.609375 -0.125q-0.203125 -0.125 -0.296875 -0.3125q-0.078125 -0.203125 -0.078125 -0.84375l0 -2.390625l-0.515625 0l0 -0.546875l0.515625 0l0 -1.015625l0.703125 -0.421875l0 1.4375l0.703125 0l0 0.546875l-0.703125 0l0 2.4375q0 0.296875 0.03125 0.390625q0.046875 0.078125 0.125 0.125q0.078125 0.046875 0.234375 0.046875q0.125 0 0.3125 -0.015625zm0.03515625 2.21875l0 -0.515625l4.671875 0l0 0.515625l-4.671875 0zm5.1054688 -6.515625l0 -0.8125l0.703125 0l0 0.8125l-0.703125 0zm0 4.921875l0 -4.15625l0.703125 0l0 4.15625l-0.703125 0zm1.7773438 0l0 -4.15625l0.625 0l0 0.59375q0.46875 -0.6875 1.328125 -0.6875q0.375 0 0.6875 0.140625q0.3125 0.140625 0.46875 0.359375q0.15625 0.21875 0.21875 0.515625q0.046875 0.1875 0.046875 0.6875l0 2.546875l-0.703125 0l0 -2.53125q0 -0.421875 -0.09375 -0.625q-0.078125 -0.21875 -0.296875 -0.34375q-0.203125 -0.140625 -0.484375 -0.140625q-0.4375 0 -0.765625 0.296875q-0.328125 0.28125 -0.328125 1.078125l0 2.265625l-0.703125 0z" fill-rule="nonzero"/><path fill="#d9d9d9" d="m92.01837 332.06494l13.181107 0l0 0c7.2797165 0 13.181099 4.970703 13.181099 11.102386c0 6.131653 -5.9013824 11.102356 -13.181099 11.102356l-13.181107 0z" fill-rule="evenodd"/><path stroke="#000000" stroke-width="1.0" stroke-linejoin="round" stroke-linecap="butt" d="m92.01837 332.06494l13.181107 0l0 0c7.2797165 0 13.181099 4.970703 13.181099 11.102386c0 6.131653 -5.9013824 11.102356 -13.181099 11.102356l-13.181107 0z" fill-rule="evenodd"/><path fill="#000000" fill-opacity="0.0" d="m70.97638 347.7612l18.48819 0" fill-rule="evenodd"/><path stroke="#000000" stroke-width="1.0" stroke-linejoin="round" stroke-linecap="butt" d="m70.97638 347.7612l12.48819 0" fill-rule="evenodd"/><path fill="#000000" stroke="#000000" stroke-width="1.0" stroke-linecap="butt" d="m83.46457 349.41293l4.5380936 -1.6517334l-4.5380936 -1.6517334z" fill-rule="evenodd"/><path fill="#000000" fill-opacity="0.0" d="m70.97638 338.33954l18.48819 0" fill-rule="evenodd"/><path stroke="#000000" stroke-width="1.0" stroke-linejoin="round" stroke-linecap="butt" d="m70.97638 338.33954l12.48819 0" fill-rule="evenodd"/><path fill="#000000" stroke="#000000" stroke-width="1.0" stroke-linecap="butt" d="m83.46457 339.99127l4.5380936 -1.6517334l-4.5380936 -1.6517334z" fill-rule="evenodd"/><path fill="#000000" fill-opacity="0.0" d="m118.38058 342.39304l14.425194 0l0 -25.858276" fill-rule="evenodd"/><path stroke="#000000" stroke-width="1.0" stroke-linejoin="round" stroke-linecap="butt" d="m118.38058 342.39304l14.425194 0l0 -19.858246" fill-rule="evenodd"/><path fill="#000000" stroke="#000000" stroke-width="1.0" stroke-linecap="butt" d="m134.4575 322.5348l-1.6517334 -4.5381165l-1.6517334 4.5381165z" fill-rule="evenodd"/><path fill="#000000" fill-opacity="0.0" d="m0 323.78217l76.25197 0l0 38.771637l-76.25197 0z" fill-rule="evenodd"/><path fill="#000000" d="m30.013687 339.94653q-0.390625 0.328125 -0.75 0.46875q-0.359375 0.140625 -0.78125 0.140625q-0.671875 0 -1.046875 -0.328125q-0.359375 -0.34375 -0.359375 -0.859375q0 -0.3125 0.125 -0.5625q0.140625 -0.25 0.359375 -0.390625q0.234375 -0.15625 0.515625 -0.234375q0.203125 -0.0625 0.625 -0.109375q0.859375 -0.109375 1.25 -0.25q0.015625 -0.140625 0.015625 -0.171875q0 -0.4375 -0.203125 -0.609375q-0.265625 -0.234375 -0.796875 -0.234375q-0.5 0 -0.734375 0.171875q-0.234375 0.171875 -0.359375 0.609375l-0.6875 -0.09375q0.09375 -0.4375 0.3125 -0.703125q0.21875 -0.28125 0.625 -0.421875q0.40625 -0.15625 0.9375 -0.15625q0.53125 0 0.859375 0.125q0.34375 0.125 0.5 0.328125q0.15625 0.1875 0.21875 0.46875q0.03125 0.1875 0.03125 0.65625l0 0.9375q0 0.96875 0.046875 1.234375q0.046875 0.265625 0.171875 0.5l-0.734375 0q-0.109375 -0.21875 -0.140625 -0.515625zm-0.0625 -1.5625q-0.375 0.15625 -1.140625 0.265625q-0.4375 0.0625 -0.625 0.140625q-0.171875 0.078125 -0.265625 0.234375q-0.09375 0.140625 -0.09375 0.328125q0 0.28125 0.203125 0.46875q0.21875 0.1875 0.625 0.1875q0.40625 0 0.71875 -0.171875q0.328125 -0.1875 0.46875 -0.5q0.109375 -0.234375 0.109375 -0.703125l0 -0.25zm1.3398438 2.078125l1.515625 -2.15625l-1.40625 -2.0l0.875 0l0.640625 0.984375q0.1875 0.265625 0.296875 0.453125q0.171875 -0.25 0.3125 -0.453125l0.703125 -0.984375l0.828125 0l-1.421875 1.953125l1.53125 2.203125l-0.859375 0l-0.84375 -1.296875l-0.234375 -0.34375l-1.09375 1.640625l-0.84375 0zm4.46875 -4.921875l0 -0.8125l0.703125 0l0 0.8125l-0.703125 0zm0 4.921875l0 -4.15625l0.703125 0l0 4.15625l-0.703125 0zm1.1210938 1.59375l0 -0.515625l4.671875 0l0 0.515625l-4.671875 0zm4.8242188 -2.828125l0.6875 -0.109375q0.0625 0.40625 0.328125 0.640625q0.265625 0.21875 0.75 0.21875q0.484375 0 0.71875 -0.1875q0.234375 -0.203125 0.234375 -0.46875q0 -0.25 -0.203125 -0.375q-0.140625 -0.09375 -0.71875 -0.25q-0.78125 -0.1875 -1.078125 -0.328125q-0.296875 -0.140625 -0.453125 -0.390625q-0.15625 -0.265625 -0.15625 -0.5625q0 -0.28125 0.125 -0.515625q0.140625 -0.234375 0.359375 -0.390625q0.15625 -0.125 0.4375 -0.203125q0.28125 -0.09375 0.609375 -0.09375q0.484375 0 0.859375 0.140625q0.375 0.140625 0.546875 0.390625q0.171875 0.234375 0.234375 0.640625l-0.6875 0.09375q-0.046875 -0.328125 -0.265625 -0.5q-0.21875 -0.1875 -0.640625 -0.1875q-0.484375 0 -0.6875 0.171875q-0.203125 0.15625 -0.203125 0.375q0 0.125 0.078125 0.234375q0.09375 0.125 0.28125 0.1875q0.09375 0.046875 0.609375 0.1875q0.75 0.203125 1.046875 0.328125q0.296875 0.125 0.453125 0.375q0.171875 0.234375 0.171875 0.59375q0 0.34375 -0.203125 0.65625q-0.203125 0.3125 -0.59375 0.484375q-0.375 0.171875 -0.875 0.171875q-0.796875 0 -1.234375 -0.328125q-0.421875 -0.34375 -0.53125 -1.0zm7.125 -0.109375l0.71875 0.09375q-0.171875 0.640625 -0.640625 1.0q-0.453125 0.34375 -1.1875 0.34375q-0.90625 0 -1.4375 -0.5625q-0.53125 -0.5625 -0.53125 -1.578125q0 -1.046875 0.53125 -1.625q0.546875 -0.578125 1.40625 -0.578125q0.828125 0 1.359375 0.578125q0.53125 0.5625 0.53125 1.59375q0 0.0625 -0.015625 0.1875l-3.09375 0q0.046875 0.671875 0.390625 1.046875q0.34375 0.359375 0.875 0.359375q0.375 0 0.640625 -0.203125q0.28125 -0.203125 0.453125 -0.65625zm-2.3125 -1.125l2.3125 0q-0.046875 -0.53125 -0.265625 -0.796875q-0.328125 -0.40625 -0.875 -0.40625q-0.484375 0 -0.8125 0.328125q-0.328125 0.328125 -0.359375 0.875zm3.9023438 2.46875l0 -5.734375l0.703125 0l0 5.734375l-0.703125 0zm1.1367188 1.59375l0 -0.515625l4.671875 0l0 0.515625l-4.671875 0zm4.8398438 -3.671875q0 -1.15625 0.640625 -1.703125q0.53125 -0.46875 1.3125 -0.46875q0.84375 0 1.390625 0.5625q0.546875 0.5625 0.546875 1.546875q0 0.8125 -0.25 1.265625q-0.234375 0.453125 -0.703125 0.71875q-0.453125 0.25 -0.984375 0.25q-0.875 0 -1.421875 -0.5625q-0.53125 -0.5625 -0.53125 -1.609375zm0.71875 0q0 0.796875 0.34375 1.203125q0.359375 0.390625 0.890625 0.390625q0.515625 0 0.859375 -0.390625q0.359375 -0.40625 0.359375 -1.21875q0 -0.78125 -0.359375 -1.171875q-0.34375 -0.390625 -0.859375 -0.390625q-0.53125 0 -0.890625 0.390625q-0.34375 0.390625 -0.34375 1.1875zm6.7148438 2.078125l0 -0.609375q-0.484375 0.703125 -1.3125 0.703125q-0.375 0 -0.703125 -0.140625q-0.3125 -0.140625 -0.46875 -0.34375q-0.140625 -0.21875 -0.203125 -0.53125q-0.046875 -0.203125 -0.046875 -0.65625l0 -2.578125l0.703125 0l0 2.3125q0 0.546875 0.046875 0.734375q0.0625 0.28125 0.265625 0.4375q0.21875 0.15625 0.546875 0.15625q0.3125 0 0.578125 -0.15625q0.28125 -0.171875 0.390625 -0.4375q0.125 -0.28125 0.125 -0.8125l0 -2.234375l0.703125 0l0 4.15625l-0.625 0zm3.2617188 -0.625l0.109375 0.609375q-0.296875 0.078125 -0.53125 0.078125q-0.390625 0 -0.609375 -0.125q-0.203125 -0.125 -0.296875 -0.3125q-0.078125 -0.203125 -0.078125 -0.84375l0 -2.390625l-0.515625 0l0 -0.546875l0.515625 0l0 -1.015625l0.703125 -0.421875l0 1.4375l0.703125 0l0 0.546875l-0.703125 0l0 2.4375q0 0.296875 0.03125 0.390625q0.046875 0.078125 0.125 0.125q0.078125 0.046875 0.234375 0.046875q0.125 0 0.3125 -0.015625z" fill-rule="nonzero"/><path fill="#000000" d="m44.244156 349.54654q-0.390625 0.328125 -0.75 0.46875q-0.359375 0.140625 -0.78125 0.140625q-0.671875 0 -1.046875 -0.328125q-0.359375 -0.34375 -0.359375 -0.859375q0 -0.3125 0.125 -0.5625q0.140625 -0.25 0.359375 -0.390625q0.234375 -0.15625 0.515625 -0.234375q0.203125 -0.0625 0.625 -0.109375q0.859375 -0.109375 1.25 -0.25q0.015625 -0.140625 0.015625 -0.171875q0 -0.4375 -0.203125 -0.609375q-0.265625 -0.234375 -0.796875 -0.234375q-0.5 0 -0.734375 0.171875q-0.234375 0.171875 -0.359375 0.609375l-0.6875 -0.09375q0.09375 -0.4375 0.3125 -0.703125q0.21875 -0.28125 0.625 -0.421875q0.40625 -0.15625 0.9375 -0.15625q0.53125 0 0.859375 0.125q0.34375 0.125 0.5 0.328125q0.15625 0.1875 0.21875 0.46875q0.03125 0.1875 0.03125 0.65625l0 0.9375q0 0.96875 0.046875 1.234375q0.046875 0.265625 0.171875 0.5l-0.734375 0q-0.109375 -0.21875 -0.140625 -0.515625zm-0.0625 -1.5625q-0.375 0.15625 -1.140625 0.265625q-0.4375 0.0625 -0.625 0.140625q-0.171875 0.078125 -0.265625 0.234375q-0.09375 0.140625 -0.09375 0.328125q0 0.28125 0.203125 0.46875q0.21875 0.1875 0.625 0.1875q0.40625 0 0.71875 -0.171875q0.328125 -0.1875 0.46875 -0.5q0.109375 -0.234375 0.109375 -0.703125l0 -0.25zm4.5117188 0.5625l0.6875 0.078125q-0.109375 0.71875 -0.578125 1.125q-0.46875 0.40625 -1.140625 0.40625q-0.859375 0 -1.375 -0.546875q-0.515625 -0.5625 -0.515625 -1.609375q0 -0.671875 0.21875 -1.171875q0.234375 -0.5 0.6875 -0.75q0.453125 -0.265625 0.984375 -0.265625q0.671875 0 1.09375 0.34375q0.4375 0.34375 0.5625 0.96875l-0.6875 0.109375q-0.09375 -0.421875 -0.34375 -0.625q-0.25 -0.21875 -0.59375 -0.21875q-0.53125 0 -0.875 0.390625q-0.328125 0.375 -0.328125 1.203125q0 0.828125 0.3125 1.21875q0.328125 0.375 0.84375 0.375q0.421875 0 0.6875 -0.25q0.28125 -0.265625 0.359375 -0.78125zm2.828125 0.890625l0.109375 0.609375q-0.296875 0.078125 -0.53125 0.078125q-0.390625 0 -0.609375 -0.125q-0.203125 -0.125 -0.296875 -0.3125q-0.078125 -0.203125 -0.078125 -0.84375l0 -2.390625l-0.515625 0l0 -0.546875l0.515625 0l0 -1.015625l0.703125 -0.421875l0 1.4375l0.703125 0l0 0.546875l-0.703125 0l0 2.4375q0 0.296875 0.03125 0.390625q0.046875 0.078125 0.125 0.125q0.078125 0.046875 0.234375 0.046875q0.125 0 0.3125 -0.015625zm0.03515625 2.21875l0 -0.515625l4.671875 0l0 0.515625l-4.671875 0zm4.8398438 -3.671875q0 -1.15625 0.640625 -1.703125q0.53125 -0.46875 1.3125 -0.46875q0.84375 0 1.390625 0.5625q0.546875 0.5625 0.546875 1.546875q0 0.8125 -0.25 1.265625q-0.234375 0.453125 -0.703125 0.71875q-0.453125 0.25 -0.984375 0.25q-0.875 0 -1.421875 -0.5625q-0.53125 -0.5625 -0.53125 -1.609375zm0.71875 0q0 0.796875 0.34375 1.203125q0.359375 0.390625 0.890625 0.390625q0.515625 0 0.859375 -0.390625q0.359375 -0.40625 0.359375 -1.21875q0 -0.78125 -0.359375 -1.171875q-0.34375 -0.390625 -0.859375 -0.390625q-0.53125 0 -0.890625 0.390625q-0.34375 0.390625 -0.34375 1.1875zm6.7148438 2.078125l0 -0.609375q-0.484375 0.703125 -1.3125 0.703125q-0.375 0 -0.703125 -0.140625q-0.3125 -0.140625 -0.46875 -0.34375q-0.140625 -0.21875 -0.203125 -0.53125q-0.046875 -0.203125 -0.046875 -0.65625l0 -2.578125l0.703125 0l0 2.3125q0 0.546875 0.046875 0.734375q0.0625 0.28125 0.265625 0.4375q0.21875 0.15625 0.546875 0.15625q0.3125 0 0.578125 -0.15625q0.28125 -0.171875 0.390625 -0.4375q0.125 -0.28125 0.125 -0.8125l0 -2.234375l0.703125 0l0 4.15625l-0.625 0zm3.2617188 -0.625l0.109375 0.609375q-0.296875 0.078125 -0.53125 0.078125q-0.390625 0 -0.609375 -0.125q-0.203125 -0.125 -0.296875 -0.3125q-0.078125 -0.203125 -0.078125 -0.84375l0 -2.390625l-0.515625 0l0 -0.546875l0.515625 0l0 -1.015625l0.703125 -0.421875l0 1.4375l0.703125 0l0 0.546875l-0.703125 0l0 2.4375q0 0.296875 0.03125 0.390625q0.046875 0.078125 0.125 0.125q0.078125 0.046875 0.234375 0.046875q0.125 0 0.3125 -0.015625z" fill-rule="nonzero"/><path fill="#000000" fill-opacity="0.0" d="m76.25197 381.8399l250.80315 0l0 -73.7323" fill-rule="evenodd"/><path stroke="#000000" stroke-width="1.0" stroke-linejoin="round" stroke-linecap="butt" d="m76.25197 381.8399l250.80315 0l0 -67.7323" fill-rule="evenodd"/><path fill="#000000" stroke="#000000" stroke-width="1.0" stroke-linecap="butt" d="m328.70685 314.1076l-1.6517334 -4.538086l-1.6517334 4.538086z" fill-rule="evenodd"/><path fill="#000000" fill-opacity="0.0" d="m0 367.30447l76.25197 0l0 29.070862l-76.25197 0z" fill-rule="evenodd"/><path fill="#000000" d="m26.17775 383.98447l-0.640625 0l0 -5.734375l0.703125 0l0 2.046875q0.4375 -0.5625 1.125 -0.5625q0.390625 0 0.734375 0.15625q0.34375 0.15625 0.5625 0.4375q0.21875 0.28125 0.34375 0.671875q0.125 0.390625 0.125 0.84375q0 1.0625 -0.53125 1.65625q-0.53125 0.578125 -1.265625 0.578125q-0.734375 0 -1.15625 -0.609375l0 0.515625zm0 -2.109375q0 0.75 0.203125 1.078125q0.328125 0.546875 0.890625 0.546875q0.46875 0 0.796875 -0.390625q0.34375 -0.40625 0.34375 -1.203125q0 -0.8125 -0.328125 -1.203125q-0.3125 -0.390625 -0.78125 -0.390625q-0.453125 0 -0.796875 0.40625q-0.328125 0.40625 -0.328125 1.15625zm3.7773438 3.703125l-0.078125 -0.65625q0.234375 0.0625 0.40625 0.0625q0.234375 0 0.375 -0.078125q0.140625 -0.078125 0.21875 -0.21875q0.078125 -0.109375 0.21875 -0.515625q0.015625 -0.0625 0.0625 -0.171875l-1.578125 -4.171875l0.765625 0l0.859375 2.40625q0.171875 0.453125 0.296875 0.96875q0.125 -0.484375 0.296875 -0.953125l0.890625 -2.421875l0.703125 0l-1.578125 4.234375q-0.265625 0.671875 -0.40625 0.9375q-0.1875 0.34375 -0.4375 0.5q-0.234375 0.171875 -0.5625 0.171875q-0.203125 0 -0.453125 -0.09375zm4.03125 0l0 -5.75l0.640625 0l0 0.546875q0.21875 -0.3125 0.5 -0.46875q0.296875 -0.171875 0.703125 -0.171875q0.53125 0 0.9375 0.28125q0.40625 0.265625 0.609375 0.765625q0.203125 0.5 0.203125 1.09375q0 0.640625 -0.234375 1.15625q-0.21875 0.5 -0.65625 0.78125q-0.4375 0.265625 -0.90625 0.265625q-0.359375 0 -0.640625 -0.140625q-0.28125 -0.15625 -0.453125 -0.390625l0 2.03125l-0.703125 0zm0.640625 -3.640625q0 0.796875 0.3125 1.1875q0.328125 0.375 0.796875 0.375q0.46875 0 0.796875 -0.390625q0.328125 -0.40625 0.328125 -1.234375q0 -0.796875 -0.328125 -1.1875q-0.3125 -0.390625 -0.765625 -0.390625q-0.453125 0 -0.796875 0.421875q-0.34375 0.40625 -0.34375 1.21875zm6.5117188 1.53125q-0.390625 0.328125 -0.75 0.46875q-0.359375 0.140625 -0.78125 0.140625q-0.671875 0 -1.046875 -0.328125q-0.359375 -0.34375 -0.359375 -0.859375q0 -0.3125 0.125 -0.5625q0.140625 -0.25 0.359375 -0.390625q0.234375 -0.15625 0.515625 -0.234375q0.203125 -0.0625 0.625 -0.109375q0.859375 -0.109375 1.25 -0.25q0.015625 -0.140625 0.015625 -0.171875q0 -0.4375 -0.203125 -0.609375q-0.265625 -0.234375 -0.796875 -0.234375q-0.5 0 -0.734375 0.171875q-0.234375 0.171875 -0.359375 0.609375l-0.6875 -0.09375q0.09375 -0.4375 0.3125 -0.703125q0.21875 -0.28125 0.625 -0.421875q0.40625 -0.15625 0.9375 -0.15625q0.53125 0 0.859375 0.125q0.34375 0.125 0.5 0.328125q0.15625 0.1875 0.21875 0.46875q0.03125 0.1875 0.03125 0.65625l0 0.9375q0 0.96875 0.046875 1.234375q0.046875 0.265625 0.171875 0.5l-0.734375 0q-0.109375 -0.21875 -0.140625 -0.515625zm-0.0625 -1.5625q-0.375 0.15625 -1.140625 0.265625q-0.4375 0.0625 -0.625 0.140625q-0.171875 0.078125 -0.265625 0.234375q-0.09375 0.140625 -0.09375 0.328125q0 0.28125 0.203125 0.46875q0.21875 0.1875 0.625 0.1875q0.40625 0 0.71875 -0.171875q0.328125 -0.1875 0.46875 -0.5q0.109375 -0.234375 0.109375 -0.703125l0 -0.25zm1.5273438 0.84375l0.6875 -0.109375q0.0625 0.40625 0.328125 0.640625q0.265625 0.21875 0.75 0.21875q0.484375 0 0.71875 -0.1875q0.234375 -0.203125 0.234375 -0.46875q0 -0.25 -0.203125 -0.375q-0.140625 -0.09375 -0.71875 -0.25q-0.78125 -0.1875 -1.078125 -0.328125q-0.296875 -0.140625 -0.453125 -0.390625q-0.15625 -0.265625 -0.15625 -0.5625q0 -0.28125 0.125 -0.515625q0.140625 -0.234375 0.359375 -0.390625q0.15625 -0.125 0.4375 -0.203125q0.28125 -0.09375 0.609375 -0.09375q0.484375 0 0.859375 0.140625q0.375 0.140625 0.546875 0.390625q0.171875 0.234375 0.234375 0.640625l-0.6875 0.09375q-0.046875 -0.328125 -0.265625 -0.5q-0.21875 -0.1875 -0.640625 -0.1875q-0.484375 0 -0.6875 0.171875q-0.203125 0.15625 -0.203125 0.375q0 0.125 0.078125 0.234375q0.09375 0.125 0.28125 0.1875q0.09375 0.046875 0.609375 0.1875q0.75 0.203125 1.046875 0.328125q0.296875 0.125 0.453125 0.375q0.171875 0.234375 0.171875 0.59375q0 0.34375 -0.203125 0.65625q-0.203125 0.3125 -0.59375 0.484375q-0.375 0.171875 -0.875 0.171875q-0.796875 0 -1.234375 -0.328125q-0.421875 -0.34375 -0.53125 -1.0zm4.0 0l0.6875 -0.109375q0.0625 0.40625 0.328125 0.640625q0.265625 0.21875 0.75 0.21875q0.484375 0 0.71875 -0.1875q0.234375 -0.203125 0.234375 -0.46875q0 -0.25 -0.203125 -0.375q-0.140625 -0.09375 -0.71875 -0.25q-0.78125 -0.1875 -1.078125 -0.328125q-0.296875 -0.140625 -0.453125 -0.390625q-0.15625 -0.265625 -0.15625 -0.5625q0 -0.28125 0.125 -0.515625q0.140625 -0.234375 0.359375 -0.390625q0.15625 -0.125 0.4375 -0.203125q0.28125 -0.09375 0.609375 -0.09375q0.484375 0 0.859375 0.140625q0.375 0.140625 0.546875 0.390625q0.171875 0.234375 0.234375 0.640625l-0.6875 0.09375q-0.046875 -0.328125 -0.265625 -0.5q-0.21875 -0.1875 -0.640625 -0.1875q-0.484375 0 -0.6875 0.171875q-0.203125 0.15625 -0.203125 0.375q0 0.125 0.078125 0.234375q0.09375 0.125 0.28125 0.1875q0.09375 0.046875 0.609375 0.1875q0.75 0.203125 1.046875 0.328125q0.296875 0.125 0.453125 0.375q0.171875 0.234375 0.171875 0.59375q0 0.34375 -0.203125 0.65625q-0.203125 0.3125 -0.59375 0.484375q-0.375 0.171875 -0.875 0.171875q-0.796875 0 -1.234375 -0.328125q-0.421875 -0.34375 -0.53125 -1.0zm3.625 2.828125l0 -0.515625l4.671875 0l0 0.515625l-4.671875 0zm7.8085938 -3.109375l0.6875 0.078125q-0.109375 0.71875 -0.578125 1.125q-0.46875 0.40625 -1.140625 0.40625q-0.859375 0 -1.375 -0.546875q-0.515625 -0.5625 -0.515625 -1.609375q0 -0.671875 0.21875 -1.171875q0.234375 -0.5 0.6875 -0.75q0.453125 -0.265625 0.984375 -0.265625q0.671875 0 1.09375 0.34375q0.4375 0.34375 0.5625 0.96875l-0.6875 0.109375q-0.09375 -0.421875 -0.34375 -0.625q-0.25 -0.21875 -0.59375 -0.21875q-0.53125 0 -0.875 0.390625q-0.328125 0.375 -0.328125 1.203125q0 0.828125 0.3125 1.21875q0.328125 0.375 0.84375 0.375q0.421875 0 0.6875 -0.25q0.28125 -0.265625 0.359375 -0.78125zm3.984375 1.515625l0 -0.53125q-0.390625 0.625 -1.15625 0.625q-0.5 0 -0.921875 -0.265625q-0.40625 -0.28125 -0.640625 -0.765625q-0.21875 -0.5 -0.21875 -1.140625q0 -0.609375 0.203125 -1.109375q0.203125 -0.515625 0.609375 -0.78125q0.421875 -0.28125 0.9375 -0.28125q0.375 0 0.65625 0.171875q0.296875 0.15625 0.484375 0.40625l0 -2.0625l0.703125 0l0 5.734375l-0.65625 0zm-2.21875 -2.078125q0 0.796875 0.328125 1.203125q0.34375 0.390625 0.796875 0.390625q0.46875 0 0.78125 -0.375q0.328125 -0.375 0.328125 -1.15625q0 -0.84375 -0.328125 -1.234375q-0.328125 -0.40625 -0.8125 -0.40625q-0.46875 0 -0.78125 0.390625q-0.3125 0.375 -0.3125 1.1875zm6.6835938 0.5625l0.6875 0.078125q-0.109375 0.71875 -0.578125 1.125q-0.46875 0.40625 -1.140625 0.40625q-0.859375 0 -1.375 -0.546875q-0.515625 -0.5625 -0.515625 -1.609375q0 -0.671875 0.21875 -1.171875q0.234375 -0.5 0.6875 -0.75q0.453125 -0.265625 0.984375 -0.265625q0.671875 0 1.09375 0.34375q0.4375 0.34375 0.5625 0.96875l-0.6875 0.109375q-0.09375 -0.421875 -0.34375 -0.625q-0.25 -0.21875 -0.59375 -0.21875q-0.53125 0 -0.875 0.390625q-0.328125 0.375 -0.328125 1.203125q0 0.828125 0.3125 1.21875q0.328125 0.375 0.84375 0.375q0.421875 0 0.6875 -0.25q0.28125 -0.265625 0.359375 -0.78125z" fill-rule="nonzero"/><path fill="#cccccc" d="m335.84778 133.80315l0 -63.8228c0 -5.388069 -4.3678894 -9.755962 -9.755981 -9.755962l-79.027466 0l0 -6.0747795l-24.791367 15.51651l24.791367 15.51651l0 -6.0747757l69.89996 0c5.187988E-4 0 9.460449E-4 4.272461E-4 9.460449E-4 9.460449E-4l-9.460449E-4 54.69435z" fill-rule="evenodd"/><path stroke="#000000" stroke-width="1.0" stroke-linejoin="round" stroke-linecap="butt" d="m335.84778 133.80315l0 -63.8228c0 -5.388069 -4.3678894 -9.755962 -9.755981 -9.755962l-79.027466 0l0 -6.0747795l-24.791367 15.51651l24.791367 15.51651l0 -6.0747757l69.89996 0c5.187988E-4 0 9.460449E-4 4.272461E-4 9.460449E-4 9.460449E-4l-9.460449E-4 54.69435z" fill-rule="evenodd"/><path fill="#000000" fill-opacity="0.0" d="m255.70866 55.283466l66.488174 0l0 29.070866l-66.488174 0z" fill-rule="evenodd"/><path fill="#000000" d="m280.1637 71.96346l0 -5.734375l1.15625 0l0 5.734375l-1.15625 0zm2.2695312 0l0 -5.734375l2.421875 0q0.921875 0 1.328125 0.15625q0.421875 0.15625 0.671875 0.5625q0.25 0.390625 0.25 0.890625q0 0.640625 -0.375 1.0625q-0.375 0.421875 -1.125 0.53125q0.375 0.21875 0.609375 0.484375q0.25 0.265625 0.65625 0.921875l0.703125 1.125l-1.375 0l-0.84375 -1.25q-0.4375 -0.671875 -0.609375 -0.84375q-0.15625 -0.171875 -0.34375 -0.234375q-0.1875 -0.0625 -0.578125 -0.0625l-0.234375 0l0 2.390625l-1.15625 0zm1.15625 -3.3125l0.84375 0q0.84375 0 1.046875 -0.0625q0.203125 -0.078125 0.3125 -0.25q0.125 -0.171875 0.125 -0.421875q0 -0.296875 -0.15625 -0.46875q-0.15625 -0.171875 -0.4375 -0.21875q-0.140625 -0.03125 -0.84375 -0.03125l-0.890625 0l0 1.453125zm9.214844 2.578125q0.4375 0.3125 0.9375 0.484375l-0.4375 0.828125q-0.25 -0.078125 -0.5 -0.21875q-0.0625 -0.03125 -0.78125 -0.515625q-0.5625 0.25 -1.234375 0.25q-1.328125 0 -2.078125 -0.765625q-0.75 -0.78125 -0.75 -2.1875q0 -1.40625 0.75 -2.1875q0.75 -0.78125 2.046875 -0.78125q1.265625 0 2.015625 0.78125q0.75 0.78125 0.75 2.1875q0 0.734375 -0.21875 1.296875q-0.15625 0.4375 -0.5 0.828125zm-0.921875 -0.640625q0.21875 -0.265625 0.328125 -0.640625q0.109375 -0.375 0.109375 -0.84375q0 -1.0 -0.4375 -1.484375q-0.4375 -0.5 -1.140625 -0.5q-0.703125 0 -1.140625 0.5q-0.4375 0.484375 -0.4375 1.484375q0 1.0 0.4375 1.5q0.4375 0.5 1.109375 0.5q0.25 0 0.46875 -0.09375q-0.34375 -0.21875 -0.71875 -0.359375l0.328125 -0.65625q0.578125 0.203125 1.09375 0.59375zm2.1445312 0.1875l1.109375 -0.171875q0.0625 0.328125 0.28125 0.5q0.21875 0.15625 0.59375 0.15625q0.4375 0 0.640625 -0.15625q0.15625 -0.109375 0.15625 -0.296875q0 -0.125 -0.078125 -0.203125q-0.09375 -0.078125 -0.375 -0.140625q-1.328125 -0.296875 -1.6875 -0.53125q-0.484375 -0.34375 -0.484375 -0.9375q0 -0.546875 0.421875 -0.90625q0.421875 -0.375 1.328125 -0.375q0.84375 0 1.25 0.28125q0.421875 0.28125 0.578125 0.828125l-1.03125 0.1875q-0.0625 -0.25 -0.25 -0.375q-0.1875 -0.125 -0.53125 -0.125q-0.4375 0 -0.625 0.125q-0.125 0.078125 -0.125 0.21875q0 0.109375 0.109375 0.203125q0.15625 0.109375 1.03125 0.3125q0.875 0.1875 1.21875 0.484375q0.34375 0.28125 0.34375 0.8125q0 0.5625 -0.484375 0.984375q-0.46875 0.40625 -1.40625 0.40625q-0.84375 0 -1.34375 -0.34375q-0.484375 -0.34375 -0.640625 -0.9375z" fill-rule="nonzero"/><path fill="#d9d9d9" d="m162.66667 53.296406l0 0c0 -3.2077904 2.600418 -5.808216 5.8082123 -5.808216l43.911118 0c1.5404358 0 3.0177917 0.61193466 4.1070404 1.7011871c1.0892487 1.0892525 1.7011871 2.5665932 1.7011871 4.107029l0 33.044987c0 3.2077866 -2.6004333 5.8082123 -5.8082275 5.8082123l-43.911118 0c-3.2077942 0 -5.8082123 -2.6004257 -5.8082123 -5.8082123z" fill-rule="evenodd"/><path stroke="#000000" stroke-width="1.0" stroke-linejoin="round" stroke-linecap="butt" d="m162.66667 53.296406l0 0c0 -3.2077904 2.600418 -5.808216 5.8082123 -5.808216l43.911118 0c1.5404358 0 3.0177917 0.61193466 4.1070404 1.7011871c1.0892487 1.0892525 1.7011871 2.5665932 1.7011871 4.107029l0 33.044987c0 3.2077866 -2.6004333 5.8082123 -5.8082275 5.8082123l-43.911118 0c-3.2077942 0 -5.8082123 -2.6004257 -5.8082123 -5.8082123z" fill-rule="evenodd"/><path fill="#000000" d="m182.68338 62.54702l0.640625 0.15625q-0.203125 0.78125 -0.71875 1.1875q-0.515625 0.40625 -1.25 0.40625q-0.78125 0 -1.265625 -0.3125q-0.484375 -0.3125 -0.734375 -0.90625q-0.25 -0.59375 -0.25 -1.28125q0 -0.734375 0.28125 -1.28125q0.296875 -0.5625 0.8125 -0.84375q0.53125 -0.296875 1.15625 -0.296875q0.71875 0 1.203125 0.359375q0.484375 0.359375 0.6875 1.03125l-0.625 0.140625q-0.171875 -0.515625 -0.484375 -0.75q-0.3125 -0.25 -0.796875 -0.25q-0.546875 0 -0.921875 0.265625q-0.359375 0.265625 -0.515625 0.71875q-0.140625 0.4375 -0.140625 0.90625q0 0.609375 0.171875 1.0625q0.171875 0.453125 0.546875 0.6875q0.375 0.21875 0.8125 0.21875q0.53125 0 0.890625 -0.296875q0.375 -0.3125 0.5 -0.921875zm1.1194305 -0.046875q0 -0.96875 0.53125 -1.421875q0.453125 -0.390625 1.09375 -0.390625q0.703125 0 1.15625 0.46875q0.453125 0.46875 0.453125 1.28125q0 0.671875 -0.203125 1.0625q-0.1875 0.375 -0.578125 0.59375q-0.375 0.203125 -0.828125 0.203125q-0.734375 0 -1.1875 -0.453125q-0.4375 -0.46875 -0.4375 -1.34375zm0.609375 0q0 0.65625 0.28125 0.984375q0.296875 0.328125 0.734375 0.328125q0.4375 0 0.71875 -0.328125q0.296875 -0.328125 0.296875 -1.015625q0 -0.640625 -0.296875 -0.96875q-0.296875 -0.328125 -0.71875 -0.328125q-0.4375 0 -0.734375 0.328125q-0.28125 0.328125 -0.28125 1.0zm3.311264 1.71875l0 -3.453125l0.53125 0l0 0.5q0.375 -0.578125 1.09375 -0.578125q0.3125 0 0.578125 0.109375q0.265625 0.109375 0.390625 0.296875q0.125 0.1875 0.1875 0.4375q0.03125 0.15625 0.03125 0.5625l0 2.125l-0.59375 0l0 -2.09375q0 -0.359375 -0.078125 -0.53125q-0.0625 -0.1875 -0.234375 -0.28125q-0.171875 -0.109375 -0.40625 -0.109375q-0.375 0 -0.640625 0.234375q-0.265625 0.234375 -0.265625 0.890625l0 1.890625l-0.59375 0zm4.655014 0l-1.3125 -3.453125l0.625 0l0.734375 2.0625q0.125 0.34375 0.234375 0.703125q0.0625 -0.28125 0.203125 -0.65625l0.78125 -2.109375l0.59375 0l-1.3125 3.453125l-0.546875 0zm4.734375 -1.109375l0.609375 0.078125q-0.140625 0.53125 -0.53125 0.828125q-0.390625 0.28125 -0.984375 0.28125q-0.765625 0 -1.203125 -0.46875q-0.4375 -0.46875 -0.4375 -1.3125q0 -0.859375 0.4375 -1.34375q0.453125 -0.484375 1.171875 -0.484375q0.6875 0 1.125 0.46875q0.4375 0.46875 0.4375 1.328125q0 0.046875 0 0.15625l-2.578125 0q0.03125 0.578125 0.3125 0.875q0.296875 0.296875 0.734375 0.296875q0.328125 0 0.546875 -0.15625q0.234375 -0.171875 0.359375 -0.546875zm-1.921875 -0.953125l1.9375 0q-0.046875 -0.4375 -0.21875 -0.640625q-0.28125 -0.34375 -0.734375 -0.34375q-0.40625 0 -0.6875 0.265625q-0.265625 0.265625 -0.296875 0.71875zm3.264389 2.0625l0 -3.453125l0.515625 0l0 0.53125q0.203125 -0.375 0.375 -0.484375q0.171875 -0.125 0.375 -0.125q0.296875 0 0.609375 0.1875l-0.203125 0.546875q-0.21875 -0.125 -0.4375 -0.125q-0.1875 0 -0.34375 0.125q-0.140625 0.109375 -0.21875 0.3125q-0.09375 0.3125 -0.09375 0.671875l0 1.8125l-0.578125 0zm3.4978333 -0.515625l0.078125 0.515625q-0.25 0.046875 -0.4375 0.046875q-0.3125 0 -0.5 -0.09375q-0.171875 -0.109375 -0.25 -0.265625q-0.0625 -0.171875 -0.0625 -0.703125l0 -1.984375l-0.4375 0l0 -0.453125l0.4375 0l0 -0.859375l0.578125 -0.34375l0 1.203125l0.59375 0l0 0.453125l-0.59375 0l0 2.015625q0 0.25 0.03125 0.328125q0.03125 0.078125 0.09375 0.125q0.078125 0.03125 0.203125 0.03125q0.109375 0 0.265625 -0.015625z" fill-rule="nonzero"/><path fill="#000000" d="m175.29099 72.218895l0 -3.0l-0.515625 0l0 -0.453125l0.515625 0l0 -0.359375q0 -0.359375 0.0625 -0.515625q0.078125 -0.234375 0.296875 -0.375q0.21875 -0.140625 0.59375 -0.140625q0.25 0 0.546875 0.0625l-0.078125 0.5q-0.1875 -0.03125 -0.359375 -0.03125q-0.265625 0 -0.375 0.125q-0.109375 0.109375 -0.109375 0.421875l0 0.3125l0.671875 0l0 0.453125l-0.671875 0l0 3.0l-0.578125 0zm1.7086945 0l0 -3.453125l0.515625 0l0 0.53125q0.203125 -0.375 0.375 -0.484375q0.171875 -0.125 0.375 -0.125q0.296875 0 0.609375 0.1875l-0.203125 0.546875q-0.21875 -0.125 -0.4375 -0.125q-0.1875 0 -0.34375 0.125q-0.140625 0.109375 -0.21875 0.3125q-0.09375 0.3125 -0.09375 0.671875l0 1.8125l-0.578125 0zm1.9978333 -1.71875q0 -0.96875 0.53125 -1.421875q0.453125 -0.390625 1.09375 -0.390625q0.703125 0 1.15625 0.46875q0.453125 0.46875 0.453125 1.28125q0 0.671875 -0.203125 1.0625q-0.1875 0.375 -0.578125 0.59375q-0.375 0.203125 -0.828125 0.203125q-0.734375 0 -1.1875 -0.453125q-0.4375 -0.46875 -0.4375 -1.34375zm0.609375 0q0 0.65625 0.28125 0.984375q0.296875 0.328125 0.734375 0.328125q0.4375 0 0.71875 -0.328125q0.296875 -0.328125 0.296875 -1.015625q0 -0.640625 -0.296875 -0.96875q-0.296875 -0.328125 -0.71875 -0.328125q-0.4375 0 -0.734375 0.328125q-0.28125 0.328125 -0.28125 1.0zm3.311264 1.71875l0 -3.453125l0.53125 0l0 0.484375q0.15625 -0.25 0.421875 -0.40625q0.28125 -0.15625 0.625 -0.15625q0.375 0 0.625 0.15625q0.25 0.15625 0.34375 0.453125q0.40625 -0.609375 1.0625 -0.609375q0.515625 0 0.78125 0.296875q0.28125 0.28125 0.28125 0.859375l0 2.375l-0.578125 0l0 -2.171875q0 -0.359375 -0.0625 -0.5q-0.046875 -0.15625 -0.203125 -0.25q-0.140625 -0.09375 -0.34375 -0.09375q-0.359375 0 -0.609375 0.25q-0.234375 0.234375 -0.234375 0.765625l0 2.0l-0.59375 0l0 -2.25q0 -0.375 -0.140625 -0.5625q-0.140625 -0.203125 -0.46875 -0.203125q-0.25 0 -0.453125 0.125q-0.203125 0.125 -0.296875 0.375q-0.09375 0.25 -0.09375 0.71875l0 1.796875l-0.59375 0zm7.1596527 -1.03125l0.578125 -0.09375q0.046875 0.34375 0.265625 0.53125q0.234375 0.1875 0.625 0.1875q0.40625 0 0.59375 -0.15625q0.203125 -0.171875 0.203125 -0.390625q0 -0.203125 -0.171875 -0.3125q-0.125 -0.078125 -0.59375 -0.203125q-0.640625 -0.15625 -0.890625 -0.265625q-0.25 -0.125 -0.390625 -0.328125q-0.125 -0.21875 -0.125 -0.46875q0 -0.234375 0.109375 -0.421875q0.109375 -0.203125 0.296875 -0.34375q0.125 -0.09375 0.359375 -0.15625q0.234375 -0.078125 0.515625 -0.078125q0.40625 0 0.703125 0.125q0.3125 0.109375 0.453125 0.3125q0.15625 0.203125 0.203125 0.53125l-0.5625 0.078125q-0.046875 -0.265625 -0.234375 -0.40625q-0.1875 -0.15625 -0.53125 -0.15625q-0.390625 0 -0.5625 0.140625q-0.171875 0.125 -0.171875 0.296875q0 0.125 0.0625 0.203125q0.078125 0.109375 0.21875 0.15625q0.09375 0.046875 0.53125 0.15625q0.609375 0.171875 0.859375 0.28125q0.25 0.09375 0.390625 0.296875q0.140625 0.203125 0.140625 0.5q0 0.296875 -0.171875 0.5625q-0.171875 0.25 -0.5 0.390625q-0.3125 0.140625 -0.71875 0.140625q-0.6875 0 -1.046875 -0.28125q-0.34375 -0.28125 -0.4375 -0.828125zm4.84375 0.515625l0.078125 0.515625q-0.25 0.046875 -0.4375 0.046875q-0.3125 0 -0.5 -0.09375q-0.171875 -0.109375 -0.25 -0.265625q-0.0625 -0.171875 -0.0625 -0.703125l0 -1.984375l-0.4375 0l0 -0.453125l0.4375 0l0 -0.859375l0.578125 -0.34375l0 1.203125l0.59375 0l0 0.453125l-0.59375 0l0 2.015625q0 0.25 0.03125 0.328125q0.03125 0.078125 0.09375 0.125q0.078125 0.03125 0.203125 0.03125q0.109375 0 0.265625 -0.015625zm0.56806946 0.515625l0 -3.453125l0.515625 0l0 0.53125q0.203125 -0.375 0.375 -0.484375q0.171875 -0.125 0.375 -0.125q0.296875 0 0.609375 0.1875l-0.203125 0.546875q-0.21875 -0.125 -0.4375 -0.125q-0.1875 0 -0.34375 0.125q-0.140625 0.109375 -0.21875 0.3125q-0.09375 0.3125 -0.09375 0.671875l0 1.8125l-0.578125 0zm4.4822083 0l0 -0.5q-0.40625 0.578125 -1.09375 0.578125q-0.3125 0 -0.578125 -0.109375q-0.265625 -0.125 -0.390625 -0.296875q-0.125 -0.1875 -0.171875 -0.4375q-0.046875 -0.171875 -0.046875 -0.546875l0 -2.140625l0.59375 0l0 1.921875q0 0.453125 0.03125 0.609375q0.0625 0.234375 0.234375 0.375q0.171875 0.125 0.4375 0.125q0.265625 0 0.5 -0.140625q0.234375 -0.140625 0.328125 -0.359375q0.09375 -0.234375 0.09375 -0.6875l0 -1.84375l0.578125 0l0 3.453125l-0.515625 0zm3.686264 -1.265625l0.578125 0.078125q-0.09375 0.59375 -0.484375 0.9375q-0.390625 0.328125 -0.953125 0.328125q-0.703125 0 -1.140625 -0.453125q-0.421875 -0.46875 -0.421875 -1.34375q0 -0.546875 0.171875 -0.96875q0.1875 -0.421875 0.5625 -0.625q0.390625 -0.21875 0.828125 -0.21875q0.5625 0 0.921875 0.296875q0.359375 0.28125 0.46875 0.796875l-0.578125 0.09375q-0.078125 -0.359375 -0.296875 -0.53125q-0.203125 -0.171875 -0.484375 -0.171875q-0.453125 0 -0.734375 0.3125q-0.265625 0.3125 -0.265625 1.0q0 0.703125 0.265625 1.015625q0.265625 0.3125 0.703125 0.3125q0.34375 0 0.5625 -0.203125q0.234375 -0.21875 0.296875 -0.65625zm2.359375 0.75l0.078125 0.515625q-0.25 0.046875 -0.4375 0.046875q-0.3125 0 -0.5 -0.09375q-0.171875 -0.109375 -0.25 -0.265625q-0.0625 -0.171875 -0.0625 -0.703125l0 -1.984375l-0.4375 0l0 -0.453125l0.4375 0l0 -0.859375l0.578125 -0.34375l0 1.203125l0.59375 0l0 0.453125l-0.59375 0l0 2.015625q0 0.25 0.03125 0.328125q0.03125 0.078125 0.09375 0.125q0.078125 0.03125 0.203125 0.03125q0.109375 0 0.265625 -0.015625z" fill-rule="nonzero"/><path fill="#000000" d="m176.97925 79.70327l0.078125 0.515625q-0.25 0.046875 -0.4375 0.046875q-0.3125 0 -0.5 -0.09375q-0.171875 -0.109375 -0.25 -0.265625q-0.0625 -0.171875 -0.0625 -0.703125l0 -1.984375l-0.4375 0l0 -0.453125l0.4375 0l0 -0.859375l0.578125 -0.34375l0 1.203125l0.59375 0l0 0.453125l-0.59375 0l0 2.015625q0 0.25 0.03125 0.328125q0.03125 0.078125 0.09375 0.125q0.078125 0.03125 0.203125 0.03125q0.109375 0 0.265625 -0.015625zm0.34931946 -1.203125q0 -0.96875 0.53125 -1.421875q0.453125 -0.390625 1.09375 -0.390625q0.703125 0 1.15625 0.46875q0.453125 0.46875 0.453125 1.28125q0 0.671875 -0.203125 1.0625q-0.1875 0.375 -0.578125 0.59375q-0.375 0.203125 -0.828125 0.203125q-0.734375 0 -1.1875 -0.453125q-0.4375 -0.46875 -0.4375 -1.34375zm0.609375 0q0 0.65625 0.28125 0.984375q0.296875 0.328125 0.734375 0.328125q0.4375 0 0.71875 -0.328125q0.296875 -0.328125 0.296875 -1.015625q0 -0.640625 -0.296875 -0.96875q-0.296875 -0.328125 -0.71875 -0.328125q-0.4375 0 -0.734375 0.328125q-0.28125 0.328125 -0.28125 1.0zm5.3012085 1.71875l0 -3.0l-0.515625 0l0 -0.453125l0.515625 0l0 -0.359375q0 -0.359375 0.0625 -0.515625q0.078125 -0.234375 0.296875 -0.375q0.21875 -0.140625 0.59375 -0.140625q0.25 0 0.546875 0.0625l-0.078125 0.5q-0.1875 -0.03125 -0.359375 -0.03125q-0.265625 0 -0.375 0.125q-0.109375 0.109375 -0.109375 0.421875l0 0.3125l0.671875 0l0 0.453125l-0.671875 0l0 3.0l-0.578125 0zm1.6930695 0l0 -4.765625l0.59375 0l0 4.765625l-0.59375 0zm3.7444305 -0.421875q-0.328125 0.265625 -0.625 0.390625q-0.296875 0.109375 -0.640625 0.109375q-0.578125 0 -0.890625 -0.28125q-0.296875 -0.28125 -0.296875 -0.703125q0 -0.25 0.109375 -0.453125q0.125 -0.21875 0.3125 -0.34375q0.1875 -0.140625 0.421875 -0.203125q0.171875 -0.046875 0.515625 -0.078125q0.71875 -0.09375 1.046875 -0.203125q0 -0.125 0 -0.15625q0 -0.359375 -0.15625 -0.5q-0.234375 -0.203125 -0.671875 -0.203125q-0.40625 0 -0.609375 0.15625q-0.203125 0.140625 -0.296875 0.5l-0.5625 -0.078125q0.078125 -0.359375 0.25 -0.578125q0.1875 -0.234375 0.515625 -0.359375q0.34375 -0.125 0.78125 -0.125q0.453125 0 0.71875 0.109375q0.28125 0.09375 0.40625 0.265625q0.140625 0.15625 0.1875 0.390625q0.03125 0.15625 0.03125 0.546875l0 0.765625q0 0.828125 0.03125 1.046875q0.046875 0.203125 0.15625 0.40625l-0.609375 0q-0.09375 -0.1875 -0.125 -0.421875zm-0.046875 -1.3125q-0.3125 0.125 -0.953125 0.21875q-0.359375 0.0625 -0.515625 0.125q-0.140625 0.0625 -0.234375 0.1875q-0.078125 0.125 -0.078125 0.28125q0 0.234375 0.171875 0.390625q0.1875 0.15625 0.53125 0.15625q0.328125 0 0.59375 -0.140625q0.265625 -0.15625 0.390625 -0.421875q0.09375 -0.1875 0.09375 -0.578125l0 -0.21875zm2.780014 1.21875l0.078125 0.515625q-0.25 0.046875 -0.4375 0.046875q-0.3125 0 -0.5 -0.09375q-0.171875 -0.109375 -0.25 -0.265625q-0.0625 -0.171875 -0.0625 -0.703125l0 -1.984375l-0.4375 0l0 -0.453125l0.4375 0l0 -0.859375l0.578125 -0.34375l0 1.203125l0.59375 0l0 0.453125l-0.59375 0l0 2.015625q0 0.25 0.03125 0.328125q0.03125 0.078125 0.09375 0.125q0.078125 0.03125 0.203125 0.03125q0.109375 0 0.265625 -0.015625zm2.417389 1.84375l0 -4.78125l0.53125 0l0 0.453125q0.1875 -0.265625 0.421875 -0.390625q0.25 -0.140625 0.578125 -0.140625q0.453125 0 0.78125 0.234375q0.34375 0.21875 0.515625 0.640625q0.171875 0.40625 0.171875 0.90625q0 0.53125 -0.1875 0.953125q-0.1875 0.421875 -0.5625 0.65625q-0.359375 0.21875 -0.75 0.21875q-0.296875 0 -0.53125 -0.125q-0.234375 -0.125 -0.375 -0.3125l0 1.6875l-0.59375 0zm0.53125 -3.03125q0 0.65625 0.265625 0.984375q0.28125 0.3125 0.65625 0.3125q0.390625 0 0.671875 -0.328125q0.28125 -0.328125 0.28125 -1.015625q0 -0.671875 -0.28125 -1.0q-0.265625 -0.328125 -0.640625 -0.328125q-0.375 0 -0.671875 0.359375q-0.28125 0.34375 -0.28125 1.015625zm3.170639 -2.390625l0 -0.671875l0.59375 0l0 0.671875l-0.59375 0zm0 4.09375l0 -3.453125l0.59375 0l0 3.453125l-0.59375 0zm1.4788055 0l0 -3.453125l0.53125 0l0 0.5q0.375 -0.578125 1.09375 -0.578125q0.3125 0 0.578125 0.109375q0.265625 0.109375 0.390625 0.296875q0.125 0.1875 0.1875 0.4375q0.03125 0.15625 0.03125 0.5625l0 2.125l-0.59375 0l0 -2.09375q0 -0.359375 -0.078125 -0.53125q-0.0625 -0.1875 -0.234375 -0.28125q-0.171875 -0.109375 -0.40625 -0.109375q-0.375 0 -0.640625 0.234375q-0.265625 0.234375 -0.265625 0.890625l0 1.890625l-0.59375 0zm3.467514 -1.03125l0.578125 -0.09375q0.046875 0.34375 0.265625 0.53125q0.234375 0.1875 0.625 0.1875q0.40625 0 0.59375 -0.15625q0.203125 -0.171875 0.203125 -0.390625q0 -0.203125 -0.171875 -0.3125q-0.125 -0.078125 -0.59375 -0.203125q-0.640625 -0.15625 -0.890625 -0.265625q-0.25 -0.125 -0.390625 -0.328125q-0.125 -0.21875 -0.125 -0.46875q0 -0.234375 0.109375 -0.421875q0.109375 -0.203125 0.296875 -0.34375q0.125 -0.09375 0.359375 -0.15625q0.234375 -0.078125 0.515625 -0.078125q0.40625 0 0.703125 0.125q0.3125 0.109375 0.453125 0.3125q0.15625 0.203125 0.203125 0.53125l-0.5625 0.078125q-0.046875 -0.265625 -0.234375 -0.40625q-0.1875 -0.15625 -0.53125 -0.15625q-0.390625 0 -0.5625 0.140625q-0.171875 0.125 -0.171875 0.296875q0 0.125 0.0625 0.203125q0.078125 0.109375 0.21875 0.15625q0.09375 0.046875 0.53125 0.15625q0.609375 0.171875 0.859375 0.28125q0.25 0.09375 0.390625 0.296875q0.140625 0.203125 0.140625 0.5q0 0.296875 -0.171875 0.5625q-0.171875 0.25 -0.5 0.390625q-0.3125 0.140625 -0.71875 0.140625q-0.6875 0 -1.046875 -0.28125q-0.34375 -0.28125 -0.4375 -0.828125z" fill-rule="nonzero"/><path fill="#000000" fill-opacity="0.0" d="m162.66667 69.8189l-90.110245 0" fill-rule="evenodd"/><path stroke="#000000" stroke-width="1.0" stroke-linejoin="round" stroke-linecap="butt" d="m162.66667 69.8189l-84.110245 0" fill-rule="evenodd"/><path fill="#000000" stroke="#000000" stroke-width="1.0" stroke-linecap="butt" d="m78.55643 68.16717l-4.5380936 1.6517334l4.5380936 1.6517258z" fill-rule="evenodd"/><path fill="#cccccc" d="m84.414696 21.658792l279.57764 0c7.648529 0 13.848907 6.2003727 13.848907 13.848921l0 80.40469l13.219116 0l-20.488434 18.817253l-20.488434 -18.817253l13.219116 0l0 -79.714966c0 -5.187988E-4 -4.272461E-4 -9.422302E-4 -9.460449E-4 -9.422302E-4l-278.88696 9.422302E-4z" fill-rule="evenodd"/><path stroke="#000000" stroke-width="1.0" stroke-linejoin="round" stroke-linecap="butt" d="m84.414696 21.658792l279.57764 0c7.648529 0 13.848907 6.2003727 13.848907 13.848921l0 80.40469l13.219116 0l-20.488434 18.817253l-20.488434 -18.817253l13.219116 0l0 -79.714966c0 -5.187988E-4 -4.272461E-4 -9.422302E-4 -9.460449E-4 -9.422302E-4l-278.88696 9.422302E-4z" fill-rule="evenodd"/><path fill="#000000" fill-opacity="0.0" d="m6.0760355 55.283466l66.48819 0l0 29.070866l-66.48819 0z" fill-rule="evenodd"/><path fill="#000000" d="m35.634537 67.04159l0 -0.8125l0.703125 0l0 0.8125l-0.703125 0zm0 4.921875l0 -4.15625l0.703125 0l0 4.15625l-0.703125 0zm1.7617188 0l0 -4.15625l0.640625 0l0 0.640625q0.234375 -0.453125 0.4375 -0.59375q0.21875 -0.140625 0.453125 -0.140625q0.359375 0 0.734375 0.234375l-0.25 0.65625q-0.25 -0.15625 -0.515625 -0.15625q-0.234375 0 -0.421875 0.140625q-0.171875 0.140625 -0.25 0.375q-0.125 0.375 -0.125 0.828125l0 2.171875l-0.703125 0zm5.3203125 1.59375l0 -2.03125q-0.15625 0.21875 -0.453125 0.375q-0.296875 0.15625 -0.625 0.15625q-0.75 0 -1.28125 -0.59375q-0.53125 -0.59375 -0.53125 -1.609375q0 -0.625 0.21875 -1.125q0.21875 -0.5 0.625 -0.75q0.421875 -0.265625 0.90625 -0.265625q0.765625 0 1.21875 0.65625l0 -0.5625l0.625 0l0 5.75l-0.703125 0zm-2.171875 -3.6875q0 0.8125 0.328125 1.21875q0.34375 0.390625 0.8125 0.390625q0.453125 0 0.78125 -0.375q0.328125 -0.390625 0.328125 -1.171875q0 -0.828125 -0.34375 -1.234375q-0.34375 -0.421875 -0.8125 -0.421875q-0.453125 0 -0.78125 0.390625q-0.3125 0.390625 -0.3125 1.203125zm3.6992188 0.859375l0.6875 -0.109375q0.0625 0.40625 0.328125 0.640625q0.265625 0.21875 0.75 0.21875q0.484375 0 0.71875 -0.1875q0.234375 -0.203125 0.234375 -0.46875q0 -0.25 -0.203125 -0.375q-0.140625 -0.09375 -0.71875 -0.25q-0.78125 -0.1875 -1.078125 -0.328125q-0.296875 -0.140625 -0.453125 -0.390625q-0.15625 -0.265625 -0.15625 -0.5625q0 -0.28125 0.125 -0.515625q0.140625 -0.234375 0.359375 -0.390625q0.15625 -0.125 0.4375 -0.203125q0.28125 -0.09375 0.609375 -0.09375q0.484375 0 0.859375 0.140625q0.375 0.140625 0.546875 0.390625q0.171875 0.234375 0.234375 0.640625l-0.6875 0.09375q-0.046875 -0.328125 -0.265625 -0.5q-0.21875 -0.1875 -0.640625 -0.1875q-0.484375 0 -0.6875 0.171875q-0.203125 0.15625 -0.203125 0.375q0 0.125 0.078125 0.234375q0.09375 0.125 0.28125 0.1875q0.09375 0.046875 0.609375 0.1875q0.75 0.203125 1.046875 0.328125q0.296875 0.125 0.453125 0.375q0.171875 0.234375 0.171875 0.59375q0 0.34375 -0.203125 0.65625q-0.203125 0.3125 -0.59375 0.484375q-0.375 0.171875 -0.875 0.171875q-0.796875 0 -1.234375 -0.328125q-0.421875 -0.34375 -0.53125 -1.0zm3.625 2.828125l0 -0.515625l4.671875 0l0 0.515625l-4.671875 0zm4.8398438 -3.671875q0 -1.15625 0.640625 -1.703125q0.53125 -0.46875 1.3125 -0.46875q0.84375 0 1.390625 0.5625q0.546875 0.5625 0.546875 1.546875q0 0.8125 -0.25 1.265625q-0.234375 0.453125 -0.703125 0.71875q-0.453125 0.25 -0.984375 0.25q-0.875 0 -1.421875 -0.5625q-0.53125 -0.5625 -0.53125 -1.609375zm0.71875 0q0 0.796875 0.34375 1.203125q0.359375 0.390625 0.890625 0.390625q0.515625 0 0.859375 -0.390625q0.359375 -0.40625 0.359375 -1.21875q0 -0.78125 -0.359375 -1.171875q-0.34375 -0.390625 -0.859375 -0.390625q-0.53125 0 -0.890625 0.390625q-0.34375 0.390625 -0.34375 1.1875zm6.7148438 2.078125l0 -0.609375q-0.484375 0.703125 -1.3125 0.703125q-0.375 0 -0.703125 -0.140625q-0.3125 -0.140625 -0.46875 -0.34375q-0.140625 -0.21875 -0.203125 -0.53125q-0.046875 -0.203125 -0.046875 -0.65625l0 -2.578125l0.703125 0l0 2.3125q0 0.546875 0.046875 0.734375q0.0625 0.28125 0.265625 0.4375q0.21875 0.15625 0.546875 0.15625q0.3125 0 0.578125 -0.15625q0.28125 -0.171875 0.390625 -0.4375q0.125 -0.28125 0.125 -0.8125l0 -2.234375l0.703125 0l0 4.15625l-0.625 0zm3.2617188 -0.625l0.109375 0.609375q-0.296875 0.078125 -0.53125 0.078125q-0.390625 0 -0.609375 -0.125q-0.203125 -0.125 -0.296875 -0.3125q-0.078125 -0.203125 -0.078125 -0.84375l0 -2.390625l-0.515625 0l0 -0.546875l0.515625 0l0 -1.015625l0.703125 -0.421875l0 1.4375l0.703125 0l0 0.546875l-0.703125 0l0 2.4375q0 0.296875 0.03125 0.390625q0.046875 0.078125 0.125 0.125q0.078125 0.046875 0.234375 0.046875q0.125 0 0.3125 -0.015625z" fill-rule="nonzero"/><path fill="#000000" fill-opacity="0.0" d="m17.92643 0l66.48819 0l0 58.17323l-66.48819 0z" fill-rule="evenodd"/><path fill="#000000" d="m54.19587 15.164375l0.6875 0.078125q-0.109375 0.71875 -0.578125 1.125q-0.46875 0.40625 -1.140625 0.40625q-0.859375 0 -1.375 -0.546875q-0.515625 -0.5625 -0.515625 -1.609375q0 -0.671875 0.21875 -1.171875q0.234375 -0.5 0.6875 -0.75q0.453125 -0.265625 0.984375 -0.265625q0.671875 0 1.09375 0.34375q0.4375 0.34375 0.5625 0.96875l-0.6875 0.109375q-0.09375 -0.421875 -0.34375 -0.625q-0.25 -0.21875 -0.59375 -0.21875q-0.53125 0 -0.875 0.390625q-0.328125 0.375 -0.328125 1.203125q0 0.828125 0.3125 1.21875q0.328125 0.375 0.84375 0.375q0.421875 0 0.6875 -0.25q0.28125 -0.265625 0.359375 -0.78125zm1.28125 1.515625l0 -5.734375l0.703125 0l0 5.734375l-0.703125 0zm1.7929688 0l0 -5.734375l0.703125 0l0 3.265625l1.671875 -1.6875l0.90625 0l-1.59375 1.546875l1.75 2.609375l-0.859375 0l-1.375 -2.125l-0.5 0.484375l0 1.640625l-0.703125 0zm3.34375 1.59375l0 -0.515625l4.671875 0l0 0.515625l-4.671875 0zm7.8085938 -2.109375q-0.390625 0.328125 -0.75 0.46875q-0.359375 0.140625 -0.78125 0.140625q-0.671875 0 -1.046875 -0.328125q-0.359375 -0.34375 -0.359375 -0.859375q0 -0.3125 0.125 -0.5625q0.140625 -0.25 0.359375 -0.390625q0.234375 -0.15625 0.515625 -0.234375q0.203125 -0.0625 0.625 -0.109375q0.859375 -0.109375 1.25 -0.25q0.015625 -0.140625 0.015625 -0.171875q0 -0.4375 -0.203125 -0.609375q-0.265625 -0.234375 -0.796875 -0.234375q-0.5 0 -0.734375 0.171875q-0.234375 0.171875 -0.359375 0.609375l-0.6875 -0.09375q0.09375 -0.4375 0.3125 -0.703125q0.21875 -0.28125 0.625 -0.421875q0.40625 -0.15625 0.9375 -0.15625q0.53125 0 0.859375 0.125q0.34375 0.125 0.5 0.328125q0.15625 0.1875 0.21875 0.46875q0.03125 0.1875 0.03125 0.65625l0 0.9375q0 0.96875 0.046875 1.234375q0.046875 0.265625 0.171875 0.5l-0.734375 0q-0.109375 -0.21875 -0.140625 -0.515625zm-0.0625 -1.5625q-0.375 0.15625 -1.140625 0.265625q-0.4375 0.0625 -0.625 0.140625q-0.171875 0.078125 -0.265625 0.234375q-0.09375 0.140625 -0.09375 0.328125q0 0.28125 0.203125 0.46875q0.21875 0.1875 0.625 0.1875q0.40625 0 0.71875 -0.171875q0.328125 -0.1875 0.46875 -0.5q0.109375 -0.234375 0.109375 -0.703125l0 -0.25zm1.3398438 2.078125l1.515625 -2.15625l-1.40625 -2.0l0.875 0l0.640625 0.984375q0.1875 0.265625 0.296875 0.453125q0.171875 -0.25 0.3125 -0.453125l0.703125 -0.984375l0.828125 0l-1.421875 1.953125l1.53125 2.203125l-0.859375 0l-0.84375 -1.296875l-0.234375 -0.34375l-1.09375 1.640625l-0.84375 0zm4.46875 -4.921875l0 -0.8125l0.703125 0l0 0.8125l-0.703125 0zm0 4.921875l0 -4.15625l0.703125 0l0 4.15625l-0.703125 0z" fill-rule="nonzero"/><path fill="#000000" d="m51.523994 24.764376l0.6875 0.078125q-0.109375 0.71875 -0.578125 1.125q-0.46875 0.40625 -1.140625 0.40625q-0.859375 0 -1.375 -0.546875q-0.515625 -0.5625 -0.515625 -1.609375q0 -0.671875 0.21875 -1.171875q0.234375 -0.5 0.6875 -0.75q0.453125 -0.265625 0.984375 -0.265625q0.671875 0 1.09375 0.34375q0.4375 0.34375 0.5625 0.96875l-0.6875 0.109375q-0.09375 -0.421875 -0.34375 -0.625q-0.25 -0.21875 -0.59375 -0.21875q-0.53125 0 -0.875 0.390625q-0.328125 0.375 -0.328125 1.203125q0 0.828125 0.3125 1.21875q0.328125 0.375 0.84375 0.375q0.421875 0 0.6875 -0.25q0.28125 -0.265625 0.359375 -0.78125zm1.28125 1.515625l0 -5.734375l0.703125 0l0 5.734375l-0.703125 0zm1.7929688 0l0 -5.734375l0.703125 0l0 3.265625l1.671875 -1.6875l0.90625 0l-1.59375 1.546875l1.75 2.609375l-0.859375 0l-1.375 -2.125l-0.5 0.484375l0 1.640625l-0.703125 0zm3.34375 1.59375l0 -0.515625l4.671875 0l0 0.515625l-4.671875 0zm5.1054688 -1.59375l0 -4.15625l0.625 0l0 0.59375q0.46875 -0.6875 1.328125 -0.6875q0.375 0 0.6875 0.140625q0.3125 0.140625 0.46875 0.359375q0.15625 0.21875 0.21875 0.515625q0.046875 0.1875 0.046875 0.6875l0 2.546875l-0.703125 0l0 -2.53125q0 -0.421875 -0.09375 -0.625q-0.078125 -0.21875 -0.296875 -0.34375q-0.203125 -0.140625 -0.484375 -0.140625q-0.4375 0 -0.765625 0.296875q-0.328125 0.28125 -0.328125 1.078125l0 2.265625l-0.703125 0zm4.1835938 -2.078125q0 -1.15625 0.640625 -1.703125q0.53125 -0.46875 1.3125 -0.46875q0.84375 0 1.390625 0.5625q0.546875 0.5625 0.546875 1.546875q0 0.8125 -0.25 1.265625q-0.234375 0.453125 -0.703125 0.71875q-0.453125 0.25 -0.984375 0.25q-0.875 0 -1.421875 -0.5625q-0.53125 -0.5625 -0.53125 -1.609375zm0.71875 0q0 0.796875 0.34375 1.203125q0.359375 0.390625 0.890625 0.390625q0.515625 0 0.859375 -0.390625q0.359375 -0.40625 0.359375 -1.21875q0 -0.78125 -0.359375 -1.171875q-0.34375 -0.390625 -0.859375 -0.390625q-0.53125 0 -0.890625 0.390625q-0.34375 0.390625 -0.34375 1.1875zm6.6992188 0.5625l0.6875 0.078125q-0.109375 0.71875 -0.578125 1.125q-0.46875 0.40625 -1.140625 0.40625q-0.859375 0 -1.375 -0.546875q-0.515625 -0.5625 -0.515625 -1.609375q0 -0.671875 0.21875 -1.171875q0.234375 -0.5 0.6875 -0.75q0.453125 -0.265625 0.984375 -0.265625q0.671875 0 1.09375 0.34375q0.4375 0.34375 0.5625 0.96875l-0.6875 0.109375q-0.09375 -0.421875 -0.34375 -0.625q-0.25 -0.21875 -0.59375 -0.21875q-0.53125 0 -0.875 0.390625q-0.328125 0.375 -0.328125 1.203125q0 0.828125 0.3125 1.21875q0.328125 0.375 0.84375 0.375q0.421875 0 0.6875 -0.25q0.28125 -0.265625 0.359375 -0.78125z" fill-rule="nonzero"/><path fill="#000000" d="m50.637276 35.364376q-0.390625 0.328125 -0.75 0.46875q-0.359375 0.140625 -0.78125 0.140625q-0.671875 0 -1.046875 -0.328125q-0.359375 -0.34375 -0.359375 -0.859375q0 -0.3125 0.125 -0.5625q0.140625 -0.25 0.359375 -0.390625q0.234375 -0.15625 0.515625 -0.234375q0.203125 -0.0625 0.625 -0.109375q0.859375 -0.109375 1.25 -0.25q0.015625 -0.140625 0.015625 -0.171875q0 -0.4375 -0.203125 -0.609375q-0.265625 -0.234375 -0.796875 -0.234375q-0.5 0 -0.734375 0.171875q-0.234375 0.171875 -0.359375 0.609375l-0.6875 -0.09375q0.09375 -0.4375 0.3125 -0.703125q0.21875 -0.28125 0.625 -0.421875q0.40625 -0.15625 0.9375 -0.15625q0.53125 0 0.859375 0.125q0.34375 0.125 0.5 0.328125q0.15625 0.1875 0.21875 0.46875q0.03125 0.1875 0.03125 0.65625l0 0.9375q0 0.96875 0.046875 1.234375q0.046875 0.265625 0.171875 0.5l-0.734375 0q-0.109375 -0.21875 -0.140625 -0.515625zm-0.0625 -1.5625q-0.375 0.15625 -1.140625 0.265625q-0.4375 0.0625 -0.625 0.140625q-0.171875 0.078125 -0.265625 0.234375q-0.09375 0.140625 -0.09375 0.328125q0 0.28125 0.203125 0.46875q0.21875 0.1875 0.625 0.1875q0.40625 0 0.71875 -0.171875q0.328125 -0.1875 0.46875 -0.5q0.109375 -0.234375 0.109375 -0.703125l0 -0.25zm1.7929688 2.078125l0 -4.15625l0.640625 0l0 0.640625q0.234375 -0.453125 0.4375 -0.59375q0.21875 -0.140625 0.453125 -0.140625q0.359375 0 0.734375 0.234375l-0.25 0.65625q-0.25 -0.15625 -0.515625 -0.15625q-0.234375 0 -0.421875 0.140625q-0.171875 0.140625 -0.25 0.375q-0.125 0.375 -0.125 0.828125l0 2.171875l-0.703125 0zm2.3984375 -1.234375l0.6875 -0.109375q0.0625 0.40625 0.328125 0.640625q0.265625 0.21875 0.75 0.21875q0.484375 0 0.71875 -0.1875q0.234375 -0.203125 0.234375 -0.46875q0 -0.25 -0.203125 -0.375q-0.140625 -0.09375 -0.71875 -0.25q-0.78125 -0.1875 -1.078125 -0.328125q-0.296875 -0.140625 -0.453125 -0.390625q-0.15625 -0.265625 -0.15625 -0.5625q0 -0.28125 0.125 -0.515625q0.140625 -0.234375 0.359375 -0.390625q0.15625 -0.125 0.4375 -0.203125q0.28125 -0.09375 0.609375 -0.09375q0.484375 0 0.859375 0.140625q0.375 0.140625 0.546875 0.390625q0.171875 0.234375 0.234375 0.640625l-0.6875 0.09375q-0.046875 -0.328125 -0.265625 -0.5q-0.21875 -0.1875 -0.640625 -0.1875q-0.484375 0 -0.6875 0.171875q-0.203125 0.15625 -0.203125 0.375q0 0.125 0.078125 0.234375q0.09375 0.125 0.28125 0.1875q0.09375 0.046875 0.609375 0.1875q0.75 0.203125 1.046875 0.328125q0.296875 0.125 0.453125 0.375q0.171875 0.234375 0.171875 0.59375q0 0.34375 -0.203125 0.65625q-0.203125 0.3125 -0.59375 0.484375q-0.375 0.171875 -0.875 0.171875q-0.796875 0 -1.234375 -0.328125q-0.421875 -0.34375 -0.53125 -1.0zm5.8125 0.609375l0.109375 0.609375q-0.296875 0.078125 -0.53125 0.078125q-0.390625 0 -0.609375 -0.125q-0.203125 -0.125 -0.296875 -0.3125q-0.078125 -0.203125 -0.078125 -0.84375l0 -2.390625l-0.515625 0l0 -0.546875l0.515625 0l0 -1.015625l0.703125 -0.421875l0 1.4375l0.703125 0l0 0.546875l-0.703125 0l0 2.4375q0 0.296875 0.03125 0.390625q0.046875 0.078125 0.125 0.125q0.078125 0.046875 0.234375 0.046875q0.125 0 0.3125 -0.015625zm0.03515625 2.21875l0 -0.515625l4.671875 0l0 0.515625l-4.671875 0zm7.8085938 -2.109375q-0.390625 0.328125 -0.75 0.46875q-0.359375 0.140625 -0.78125 0.140625q-0.671875 0 -1.046875 -0.328125q-0.359375 -0.34375 -0.359375 -0.859375q0 -0.3125 0.125 -0.5625q0.140625 -0.25 0.359375 -0.390625q0.234375 -0.15625 0.515625 -0.234375q0.203125 -0.0625 0.625 -0.109375q0.859375 -0.109375 1.25 -0.25q0.015625 -0.140625 0.015625 -0.171875q0 -0.4375 -0.203125 -0.609375q-0.265625 -0.234375 -0.796875 -0.234375q-0.5 0 -0.734375 0.171875q-0.234375 0.171875 -0.359375 0.609375l-0.6875 -0.09375q0.09375 -0.4375 0.3125 -0.703125q0.21875 -0.28125 0.625 -0.421875q0.40625 -0.15625 0.9375 -0.15625q0.53125 0 0.859375 0.125q0.34375 0.125 0.5 0.328125q0.15625 0.1875 0.21875 0.46875q0.03125 0.1875 0.03125 0.65625l0 0.9375q0 0.96875 0.046875 1.234375q0.046875 0.265625 0.171875 0.5l-0.734375 0q-0.109375 -0.21875 -0.140625 -0.515625zm-0.0625 -1.5625q-0.375 0.15625 -1.140625 0.265625q-0.4375 0.0625 -0.625 0.140625q-0.171875 0.078125 -0.265625 0.234375q-0.09375 0.140625 -0.09375 0.328125q0 0.28125 0.203125 0.46875q0.21875 0.1875 0.625 0.1875q0.40625 0 0.71875 -0.171875q0.328125 -0.1875 0.46875 -0.5q0.109375 -0.234375 0.109375 -0.703125l0 -0.25zm1.3398438 2.078125l1.515625 -2.15625l-1.40625 -2.0l0.875 0l0.640625 0.984375q0.1875 0.265625 0.296875 0.453125q0.171875 -0.25 0.3125 -0.453125l0.703125 -0.984375l0.828125 0l-1.421875 1.953125l1.53125 2.203125l-0.859375 0l-0.84375 -1.296875l-0.234375 -0.34375l-1.09375 1.640625l-0.84375 0zm4.46875 -4.921875l0 -0.8125l0.703125 0l0 0.8125l-0.703125 0zm0 4.921875l0 -4.15625l0.703125 0l0 4.15625l-0.703125 0z" fill-rule="nonzero"/><path fill="#000000" d="m47.9654 44.964375q-0.390625 0.328125 -0.75 0.46875q-0.359375 0.140625 -0.78125 0.140625q-0.671875 0 -1.046875 -0.328125q-0.359375 -0.34375 -0.359375 -0.859375q0 -0.3125 0.125 -0.5625q0.140625 -0.25 0.359375 -0.390625q0.234375 -0.15625 0.515625 -0.234375q0.203125 -0.0625 0.625 -0.109375q0.859375 -0.109375 1.25 -0.25q0.015625 -0.140625 0.015625 -0.171875q0 -0.4375 -0.203125 -0.609375q-0.265625 -0.234375 -0.796875 -0.234375q-0.5 0 -0.734375 0.171875q-0.234375 0.171875 -0.359375 0.609375l-0.6875 -0.09375q0.09375 -0.4375 0.3125 -0.703125q0.21875 -0.28125 0.625 -0.421875q0.40625 -0.15625 0.9375 -0.15625q0.53125 0 0.859375 0.125q0.34375 0.125 0.5 0.328125q0.15625 0.1875 0.21875 0.46875q0.03125 0.1875 0.03125 0.65625l0 0.9375q0 0.96875 0.046875 1.234375q0.046875 0.265625 0.171875 0.5l-0.734375 0q-0.109375 -0.21875 -0.140625 -0.515625zm-0.0625 -1.5625q-0.375 0.15625 -1.140625 0.265625q-0.4375 0.0625 -0.625 0.140625q-0.171875 0.078125 -0.265625 0.234375q-0.09375 0.140625 -0.09375 0.328125q0 0.28125 0.203125 0.46875q0.21875 0.1875 0.625 0.1875q0.40625 0 0.71875 -0.171875q0.328125 -0.1875 0.46875 -0.5q0.109375 -0.234375 0.109375 -0.703125l0 -0.25zm1.7929688 2.078125l0 -4.15625l0.640625 0l0 0.640625q0.234375 -0.453125 0.4375 -0.59375q0.21875 -0.140625 0.453125 -0.140625q0.359375 0 0.734375 0.234375l-0.25 0.65625q-0.25 -0.15625 -0.515625 -0.15625q-0.234375 0 -0.421875 0.140625q-0.171875 0.140625 -0.25 0.375q-0.125 0.375 -0.125 0.828125l0 2.171875l-0.703125 0zm2.3984375 -1.234375l0.6875 -0.109375q0.0625 0.40625 0.328125 0.640625q0.265625 0.21875 0.75 0.21875q0.484375 0 0.71875 -0.1875q0.234375 -0.203125 0.234375 -0.46875q0 -0.25 -0.203125 -0.375q-0.140625 -0.09375 -0.71875 -0.25q-0.78125 -0.1875 -1.078125 -0.328125q-0.296875 -0.140625 -0.453125 -0.390625q-0.15625 -0.265625 -0.15625 -0.5625q0 -0.28125 0.125 -0.515625q0.140625 -0.234375 0.359375 -0.390625q0.15625 -0.125 0.4375 -0.203125q0.28125 -0.09375 0.609375 -0.09375q0.484375 0 0.859375 0.140625q0.375 0.140625 0.546875 0.390625q0.171875 0.234375 0.234375 0.640625l-0.6875 0.09375q-0.046875 -0.328125 -0.265625 -0.5q-0.21875 -0.1875 -0.640625 -0.1875q-0.484375 0 -0.6875 0.171875q-0.203125 0.15625 -0.203125 0.375q0 0.125 0.078125 0.234375q0.09375 0.125 0.28125 0.1875q0.09375 0.046875 0.609375 0.1875q0.75 0.203125 1.046875 0.328125q0.296875 0.125 0.453125 0.375q0.171875 0.234375 0.171875 0.59375q0 0.34375 -0.203125 0.65625q-0.203125 0.3125 -0.59375 0.484375q-0.375 0.171875 -0.875 0.171875q-0.796875 0 -1.234375 -0.328125q-0.421875 -0.34375 -0.53125 -1.0zm5.8125 0.609375l0.109375 0.609375q-0.296875 0.078125 -0.53125 0.078125q-0.390625 0 -0.609375 -0.125q-0.203125 -0.125 -0.296875 -0.3125q-0.078125 -0.203125 -0.078125 -0.84375l0 -2.390625l-0.515625 0l0 -0.546875l0.515625 0l0 -1.015625l0.703125 -0.421875l0 1.4375l0.703125 0l0 0.546875l-0.703125 0l0 2.4375q0 0.296875 0.03125 0.390625q0.046875 0.078125 0.125 0.125q0.078125 0.046875 0.234375 0.046875q0.125 0 0.3125 -0.015625zm0.03515625 2.21875l0 -0.515625l4.671875 0l0 0.515625l-4.671875 0zm5.1054688 -1.59375l0 -4.15625l0.625 0l0 0.59375q0.46875 -0.6875 1.328125 -0.6875q0.375 0 0.6875 0.140625q0.3125 0.140625 0.46875 0.359375q0.15625 0.21875 0.21875 0.515625q0.046875 0.1875 0.046875 0.6875l0 2.546875l-0.703125 0l0 -2.53125q0 -0.421875 -0.09375 -0.625q-0.078125 -0.21875 -0.296875 -0.34375q-0.203125 -0.140625 -0.484375 -0.140625q-0.4375 0 -0.765625 0.296875q-0.328125 0.28125 -0.328125 1.078125l0 2.265625l-0.703125 0zm4.1835938 -2.078125q0 -1.15625 0.640625 -1.703125q0.53125 -0.46875 1.3125 -0.46875q0.84375 0 1.390625 0.5625q0.546875 0.5625 0.546875 1.546875q0 0.8125 -0.25 1.265625q-0.234375 0.453125 -0.703125 0.71875q-0.453125 0.25 -0.984375 0.25q-0.875 0 -1.421875 -0.5625q-0.53125 -0.5625 -0.53125 -1.609375zm0.71875 0q0 0.796875 0.34375 1.203125q0.359375 0.390625 0.890625 0.390625q0.515625 0 0.859375 -0.390625q0.359375 -0.40625 0.359375 -1.21875q0 -0.78125 -0.359375 -1.171875q-0.34375 -0.390625 -0.859375 -0.390625q-0.53125 0 -0.890625 0.390625q-0.34375 0.390625 -0.34375 1.1875zm6.6992188 0.5625l0.6875 0.078125q-0.109375 0.71875 -0.578125 1.125q-0.46875 0.40625 -1.140625 0.40625q-0.859375 0 -1.375 -0.546875q-0.515625 -0.5625 -0.515625 -1.609375q0 -0.671875 0.21875 -1.171875q0.234375 -0.5 0.6875 -0.75q0.453125 -0.265625 0.984375 -0.265625q0.671875 0 1.09375 0.34375q0.4375 0.34375 0.5625 0.96875l-0.6875 0.109375q-0.09375 -0.421875 -0.34375 -0.625q-0.25 -0.21875 -0.59375 -0.21875q-0.53125 0 -0.875 0.390625q-0.328125 0.375 -0.328125 1.203125q0 0.828125 0.3125 1.21875q0.328125 0.375 0.84375 0.375q0.421875 0 0.6875 -0.25q0.28125 -0.265625 0.359375 -0.78125z" fill-rule="nonzero"/><path fill="#000000" fill-opacity="0.0" d="m184.72441 349.25986l97.60631 0l0 29.070862l-97.60631 0z" fill-rule="evenodd"/><path fill="#000000" d="m194.24004 365.93985l0 -4.15625l0.640625 0l0 0.640625q0.234375 -0.453125 0.4375 -0.59375q0.21875 -0.140625 0.453125 -0.140625q0.359375 0 0.734375 0.234375l-0.25 0.65625q-0.25 -0.15625 -0.515625 -0.15625q-0.234375 0 -0.421875 0.140625q-0.171875 0.140625 -0.25 0.375q-0.125 0.375 -0.125 0.828125l0 2.171875l-0.703125 0zm5.3828125 -0.515625q-0.390625 0.328125 -0.75 0.46875q-0.359375 0.140625 -0.78125 0.140625q-0.671875 0 -1.046875 -0.328125q-0.359375 -0.34375 -0.359375 -0.859375q0 -0.3125 0.125 -0.5625q0.140625 -0.25 0.359375 -0.390625q0.234375 -0.15625 0.515625 -0.234375q0.203125 -0.0625 0.625 -0.109375q0.859375 -0.109375 1.25 -0.25q0.015625 -0.140625 0.015625 -0.171875q0 -0.4375 -0.203125 -0.609375q-0.265625 -0.234375 -0.796875 -0.234375q-0.5 0 -0.734375 0.171875q-0.234375 0.171875 -0.359375 0.609375l-0.6875 -0.09375q0.09375 -0.4375 0.3125 -0.703125q0.21875 -0.28125 0.625 -0.421875q0.40625 -0.15625 0.9375 -0.15625q0.53125 0 0.859375 0.125q0.34375 0.125 0.5 0.328125q0.15625 0.1875 0.21875 0.46875q0.03125 0.1875 0.03125 0.65625l0 0.9375q0 0.96875 0.046875 1.234375q0.046875 0.265625 0.171875 0.5l-0.734375 0q-0.109375 -0.21875 -0.140625 -0.515625zm-0.0625 -1.5625q-0.375 0.15625 -1.140625 0.265625q-0.4375 0.0625 -0.625 0.140625q-0.171875 0.078125 -0.265625 0.234375q-0.09375 0.140625 -0.09375 0.328125q0 0.28125 0.203125 0.46875q0.21875 0.1875 0.625 0.1875q0.40625 0 0.71875 -0.171875q0.328125 -0.1875 0.46875 -0.5q0.109375 -0.234375 0.109375 -0.703125l0 -0.25zm2.9648438 2.078125l-1.578125 -4.15625l0.734375 0l0.890625 2.484375q0.140625 0.40625 0.265625 0.84375q0.09375 -0.328125 0.265625 -0.796875l0.921875 -2.53125l0.71875 0l-1.5625 4.15625l-0.65625 0zm5.6875 -1.34375l0.71875 0.09375q-0.171875 0.640625 -0.640625 1.0q-0.453125 0.34375 -1.1875 0.34375q-0.90625 0 -1.4375 -0.5625q-0.53125 -0.5625 -0.53125 -1.578125q0 -1.046875 0.53125 -1.625q0.546875 -0.578125 1.40625 -0.578125q0.828125 0 1.359375 0.578125q0.53125 0.5625 0.53125 1.59375q0 0.0625 -0.015625 0.1875l-3.09375 0q0.046875 0.671875 0.390625 1.046875q0.34375 0.359375 0.875 0.359375q0.375 0 0.640625 -0.203125q0.28125 -0.203125 0.453125 -0.65625zm-2.3125 -1.125l2.3125 0q-0.046875 -0.53125 -0.265625 -0.796875q-0.328125 -0.40625 -0.875 -0.40625q-0.484375 0 -0.8125 0.328125q-0.328125 0.328125 -0.359375 0.875zm3.9179688 2.46875l0 -4.15625l0.625 0l0 0.59375q0.46875 -0.6875 1.328125 -0.6875q0.375 0 0.6875 0.140625q0.3125 0.140625 0.46875 0.359375q0.15625 0.21875 0.21875 0.515625q0.046875 0.1875 0.046875 0.6875l0 2.546875l-0.703125 0l0 -2.53125q0 -0.421875 -0.09375 -0.625q-0.078125 -0.21875 -0.296875 -0.34375q-0.203125 -0.140625 -0.484375 -0.140625q-0.4375 0 -0.765625 0.296875q-0.328125 0.28125 -0.328125 1.078125l0 2.265625l-0.703125 0zm4.1835938 -2.078125q0 -1.15625 0.640625 -1.703125q0.53125 -0.46875 1.3125 -0.46875q0.84375 0 1.390625 0.5625q0.546875 0.5625 0.546875 1.546875q0 0.8125 -0.25 1.265625q-0.234375 0.453125 -0.703125 0.71875q-0.453125 0.25 -0.984375 0.25q-0.875 0 -1.421875 -0.5625q-0.53125 -0.5625 -0.53125 -1.609375zm0.71875 0q0 0.796875 0.34375 1.203125q0.359375 0.390625 0.890625 0.390625q0.515625 0 0.859375 -0.390625q0.359375 -0.40625 0.359375 -1.21875q0 -0.78125 -0.359375 -1.171875q-0.34375 -0.390625 -0.859375 -0.390625q-0.53125 0 -0.890625 0.390625q-0.34375 0.390625 -0.34375 1.1875zm6.6992188 0.5625l0.6875 0.078125q-0.109375 0.71875 -0.578125 1.125q-0.46875 0.40625 -1.140625 0.40625q-0.859375 0 -1.375 -0.546875q-0.515625 -0.5625 -0.515625 -1.609375q0 -0.671875 0.21875 -1.171875q0.234375 -0.5 0.6875 -0.75q0.453125 -0.265625 0.984375 -0.265625q0.671875 0 1.09375 0.34375q0.4375 0.34375 0.5625 0.96875l-0.6875 0.109375q-0.09375 -0.421875 -0.34375 -0.625q-0.25 -0.21875 -0.59375 -0.21875q-0.53125 0 -0.875 0.390625q-0.328125 0.375 -0.328125 1.203125q0 0.828125 0.3125 1.21875q0.328125 0.375 0.84375 0.375q0.421875 0 0.6875 -0.25q0.28125 -0.265625 0.359375 -0.78125zm0.640625 3.109375l0 -0.515625l4.671875 0l0 0.515625l-4.671875 0zm5.8710938 -1.59375l-1.265625 -4.15625l0.71875 0l0.65625 2.40625l0.25 0.890625q0.015625 -0.078125 0.21875 -0.859375l0.65625 -2.4375l0.71875 0l0.625 2.40625l0.203125 0.796875l0.25 -0.796875l0.703125 -2.40625l0.6875 0l-1.296875 4.15625l-0.734375 0l-0.65625 -2.484375l-0.15625 -0.703125l-0.84375 3.1875l-0.734375 0zm4.9960938 0l0 -4.15625l0.640625 0l0 0.640625q0.234375 -0.453125 0.4375 -0.59375q0.21875 -0.140625 0.453125 -0.140625q0.359375 0 0.734375 0.234375l-0.25 0.65625q-0.25 -0.15625 -0.515625 -0.15625q-0.234375 0 -0.421875 0.140625q-0.171875 0.140625 -0.25 0.375q-0.125 0.375 -0.125 0.828125l0 2.171875l-0.703125 0zm5.3828125 -0.515625q-0.390625 0.328125 -0.75 0.46875q-0.359375 0.140625 -0.78125 0.140625q-0.671875 0 -1.046875 -0.328125q-0.359375 -0.34375 -0.359375 -0.859375q0 -0.3125 0.125 -0.5625q0.140625 -0.25 0.359375 -0.390625q0.234375 -0.15625 0.515625 -0.234375q0.203125 -0.0625 0.625 -0.109375q0.859375 -0.109375 1.25 -0.25q0.015625 -0.140625 0.015625 -0.171875q0 -0.4375 -0.203125 -0.609375q-0.265625 -0.234375 -0.796875 -0.234375q-0.5 0 -0.734375 0.171875q-0.234375 0.171875 -0.359375 0.609375l-0.6875 -0.09375q0.09375 -0.4375 0.3125 -0.703125q0.21875 -0.28125 0.625 -0.421875q0.40625 -0.15625 0.9375 -0.15625q0.53125 0 0.859375 0.125q0.34375 0.125 0.5 0.328125q0.15625 0.1875 0.21875 0.46875q0.03125 0.1875 0.03125 0.65625l0 0.9375q0 0.96875 0.046875 1.234375q0.046875 0.265625 0.171875 0.5l-0.734375 0q-0.109375 -0.21875 -0.140625 -0.515625zm-0.0625 -1.5625q-0.375 0.15625 -1.140625 0.265625q-0.4375 0.0625 -0.625 0.140625q-0.171875 0.078125 -0.265625 0.234375q-0.09375 0.140625 -0.09375 0.328125q0 0.28125 0.203125 0.46875q0.21875 0.1875 0.625 0.1875q0.40625 0 0.71875 -0.171875q0.328125 -0.1875 0.46875 -0.5q0.109375 -0.234375 0.109375 -0.703125l0 -0.25zm1.8085938 3.671875l0 -5.75l0.640625 0l0 0.546875q0.21875 -0.3125 0.5 -0.46875q0.296875 -0.171875 0.703125 -0.171875q0.53125 0 0.9375 0.28125q0.40625 0.265625 0.609375 0.765625q0.203125 0.5 0.203125 1.09375q0 0.640625 -0.234375 1.15625q-0.21875 0.5 -0.65625 0.78125q-0.4375 0.265625 -0.90625 0.265625q-0.359375 0 -0.640625 -0.140625q-0.28125 -0.15625 -0.453125 -0.390625l0 2.03125l-0.703125 0zm0.640625 -3.640625q0 0.796875 0.3125 1.1875q0.328125 0.375 0.796875 0.375q0.46875 0 0.796875 -0.390625q0.328125 -0.40625 0.328125 -1.234375q0 -0.796875 -0.328125 -1.1875q-0.3125 -0.390625 -0.765625 -0.390625q-0.453125 0 -0.796875 0.421875q-0.34375 0.40625 -0.34375 1.21875zm3.8085938 3.640625l0 -5.75l0.640625 0l0 0.546875q0.21875 -0.3125 0.5 -0.46875q0.296875 -0.171875 0.703125 -0.171875q0.53125 0 0.9375 0.28125q0.40625 0.265625 0.609375 0.765625q0.203125 0.5 0.203125 1.09375q0 0.640625 -0.234375 1.15625q-0.21875 0.5 -0.65625 0.78125q-0.4375 0.265625 -0.90625 0.265625q-0.359375 0 -0.640625 -0.140625q-0.28125 -0.15625 -0.453125 -0.390625l0 2.03125l-0.703125 0zm0.640625 -3.640625q0 0.796875 0.3125 1.1875q0.328125 0.375 0.796875 0.375q0.46875 0 0.796875 -0.390625q0.328125 -0.40625 0.328125 -1.234375q0 -0.796875 -0.328125 -1.1875q-0.3125 -0.390625 -0.765625 -0.390625q-0.453125 0 -0.796875 0.421875q-0.34375 0.40625 -0.34375 1.21875zm6.6523438 0.703125l0.71875 0.09375q-0.171875 0.640625 -0.640625 1.0q-0.453125 0.34375 -1.1875 0.34375q-0.90625 0 -1.4375 -0.5625q-0.53125 -0.5625 -0.53125 -1.578125q0 -1.046875 0.53125 -1.625q0.546875 -0.578125 1.40625 -0.578125q0.828125 0 1.359375 0.578125q0.53125 0.5625 0.53125 1.59375q0 0.0625 -0.015625 0.1875l-3.09375 0q0.046875 0.671875 0.390625 1.046875q0.34375 0.359375 0.875 0.359375q0.375 0 0.640625 -0.203125q0.28125 -0.203125 0.453125 -0.65625zm-2.3125 -1.125l2.3125 0q-0.046875 -0.53125 -0.265625 -0.796875q-0.328125 -0.40625 -0.875 -0.40625q-0.484375 0 -0.8125 0.328125q-0.328125 0.328125 -0.359375 0.875zm3.9023438 2.46875l0 -4.15625l0.640625 0l0 0.640625q0.234375 -0.453125 0.4375 -0.59375q0.21875 -0.140625 0.453125 -0.140625q0.359375 0 0.734375 0.234375l-0.25 0.65625q-0.25 -0.15625 -0.515625 -0.15625q-0.234375 0 -0.421875 0.140625q-0.171875 0.140625 -0.25 0.375q-0.125 0.375 -0.125 0.828125l0 2.171875l-0.703125 0zm2.4414062 0l0 -0.796875l0.79685974 0l0 0.796875l-0.79685974 0zm1.738266 -1.234375l0.6875 -0.109375q0.0625 0.40625 0.328125 0.640625q0.265625 0.21875 0.75 0.21875q0.484375 0 0.71875 -0.1875q0.234375 -0.203125 0.234375 -0.46875q0 -0.25 -0.203125 -0.375q-0.140625 -0.09375 -0.71875 -0.25q-0.78125 -0.1875 -1.078125 -0.328125q-0.296875 -0.140625 -0.453125 -0.390625q-0.15625 -0.265625 -0.15625 -0.5625q0 -0.28125 0.125 -0.515625q0.140625 -0.234375 0.359375 -0.390625q0.15625 -0.125 0.4375 -0.203125q0.28125 -0.09375 0.609375 -0.09375q0.484375 0 0.859375 0.140625q0.375 0.140625 0.546875 0.390625q0.171875 0.234375 0.234375 0.640625l-0.6875 0.09375q-0.046875 -0.328125 -0.265625 -0.5q-0.21875 -0.1875 -0.640625 -0.1875q-0.484375 0 -0.6875 0.171875q-0.203125 0.15625 -0.203125 0.375q0 0.125 0.078125 0.234375q0.09375 0.125 0.28125 0.1875q0.09375 0.046875 0.609375 0.1875q0.75 0.203125 1.046875 0.328125q0.296875 0.125 0.453125 0.375q0.171875 0.234375 0.171875 0.59375q0 0.34375 -0.203125 0.65625q-0.203125 0.3125 -0.59375 0.484375q-0.375 0.171875 -0.875 0.171875q-0.796875 0 -1.234375 -0.328125q-0.421875 -0.34375 -0.53125 -1.0zm5.4375 1.234375l-1.578125 -4.15625l0.734375 0l0.890625 2.484375q0.140625 0.40625 0.265625 0.84375q0.09375 -0.328125 0.265625 -0.796875l0.921875 -2.53125l0.71875 0l-1.5625 4.15625l-0.65625 0z" fill-rule="nonzero"/></g></svg>